<svg xmlns="http://www.w3.org/2000/svg" viewBox="0 0 384 34.39"><defs><style>.cls-1{fill:#0071be;}.cls-2{fill:#fff;}</style></defs><g id="レイヤー_2" data-name="レイヤー 2"><g id="JP"><path class="cls-1" d="M47.38,31.66V2.71h0c-1.46,0-2.94-.08-4.44-.08C19.52,2.63.54,9.15.54,17.19s19,14.56,42.38,14.56c1.5,0,3,0,4.45-.08Z"/><path class="cls-1" d="M42.92,32.3c-11.38,0-22.08-1.53-30.14-4.3C4.54,25.17,0,21.33,0,17.19s4.54-8,12.78-10.81c8.06-2.77,18.76-4.29,30.14-4.29,1.49,0,3,0,4.46.08h0l.49.05V31.81l-.25.4h-.28C45.91,32.27,44.41,32.3,42.92,32.3Zm0-29.12c-11.26,0-21.84,1.5-29.79,4.23-7.65,2.63-12,6.2-12,9.78s4.39,7.15,12,9.78c7.95,2.74,18.53,4.24,29.79,4.24,1.31,0,2.62,0,3.91-.06V3.24C45.54,3.2,44.23,3.18,42.92,3.18Z"/><path class="cls-2" d="M47.37,31.67c21.31-.76,37.93-7,37.93-14.48S68.68,3.47,47.36,2.71h0v29Z"/><path class="cls-2" d="M14.76,27.1V7.27h7.29l3.26,12.37L28.56,7.27h7.29V27.1H30.42V21L30.5,18l.31-3.58h0L27.4,27.1H23.21L19.85,14.38H19.8l.26,2.92.13,3.08V27.1Z"/><path class="cls-2" d="M47.37,27.1h-3V19.88L37.46,7.27h6.76L47.39,14"/><path class="cls-1" d="M46.37,32.25l.46-.75V2.71h.52l0-.54c10.42.37,20.06,2.05,27.14,4.74,7.3,2.77,11.32,6.42,11.32,10.28s-4,7.52-11.32,10.29c-7.08,2.68-16.72,4.36-27.13,4.74Zm1.55-29V31.11c20.7-.84,36.84-6.92,36.84-13.92S68.62,4.12,47.92,3.28Z"/><path class="cls-1" d="M68.79,14.85c-.18-2.07-1.38-3.25-3.27-3.25-2.13,0-3.41,2-3.41,5.78,0,2.78.56,5.39,3.64,5.39,1.94,0,2.86-1.46,3.09-3.35h5.81c-.54,5.12-3.94,8.2-8.8,8.2-6.09,0-9.78-4-9.78-10.46s4-10.41,9.19-10.41c5.63,0,8.78,3,9.26,8.1Z"/><path class="cls-1" d="M47.39,14l3.17-6.72h6.66l-6.86,12.5V27.1h-3"/><path class="cls-2" d="M109,5,110.51.57h5.57L114.63,5h11.76L125,27.93c0,.66.23,1,.82,1h2.86l-.28,4.58h-5.57c-2.42,0-3.51-1.36-3.35-4l1.21-19.63h-7.62l-3.56,10.92,1.41,1.46a3.58,3.58,0,0,0,2.78,1.25h2.71l-.28,4.57h-5.28a2.7,2.7,0,0,1-2.17-1l-.89-1-1.31,4.1c-.73,2.31-1.83,3.48-3.29,3.48H95.73L96,29.06h4.43c.44,0,.8-.4,1.11-1.24l2.07-6.3L97.76,15H104l1.27,1.36,2.16-6.52H97.63L97.93,5Z"/><path class="cls-2" d="M103.17,34H95.4l.32-5.2h4.72c.29,0,.56-.35.82-1l2-6.12-6.21-6.86h7.09l1,1.07L107,10.18H97.3l.34-5.45h11.17L110.29.26h6.22l-1.45,4.47h11.66L125.29,28a.77.77,0,0,0,.12.54.52.52,0,0,0,.39.12H129l-.32,5.19h-5.86a3.63,3.63,0,0,1-2.77-1,4.28,4.28,0,0,1-.88-3.33l1.18-19.3h-7.06L109.84,20.7,111.12,22a3.29,3.29,0,0,0,2.56,1.15h3l-.32,5.19h-5.57a3,3,0,0,1-2.4-1.13l-.53-.58-1.15,3.59C106,32.71,104.77,34,103.17,34Zm-7.11-.62h7.11c1.3,0,2.31-1.1,3-3.26l1.48-4.62,1.25,1.39a2.39,2.39,0,0,0,1.94.93h5l.24-4h-2.38a3.89,3.89,0,0,1-3-1.34l-1.53-1.59,3.69-11.31H121l-1.23,20a3.75,3.75,0,0,0,.73,2.87,3,3,0,0,0,2.31.8h5.28l.24-4H125.8a1.09,1.09,0,0,1-.84-.32,1.29,1.29,0,0,1-.29-1l1.39-22.57H114.21L115.66.87h-4.92l-1.49,4.47h-11L98,9.56h9.92L105.42,17l-1.54-1.64H98.45l5.52,6.1-2.13,6.47c-.23.64-.62,1.46-1.4,1.46H96.3Z"/><path class="cls-2" d="M166.34,7H162.6l-.09,1.58h-5.57L157,7H143l-.1,1.58h-5.42l.1-1.58h-4.18l.27-4.43h4.18L138,.71h5.43l-.12,1.87h14l.11-1.87H163l-.11,1.87h3.73Zm-14,1-.15,2.56h13.29l-.25,4.14H143.15l-.44,2.46h21.87l-.76,12.3c-.16,2.64-1.78,4-4.82,4H146.54l.27-4.44h10.74c.73,0,1.15-.29,1.19-.88l.4-6.55H141.92l-1.5,8.42c-.44,2.27-1.31,3.45-2.63,3.45h-5.72l.26-4.14h2.45c.55,0,.92-.7,1.09-2.16l2.27-12.46h-4.62l.26-4.14h13L146.94,8Z"/><path class="cls-2" d="M159,33.8H146.21l.31-5h11c.84,0,.87-.42.88-.58l.38-6.23H142.18l-1.46,8.17c-.47,2.45-1.45,3.69-2.93,3.69h-6l.3-4.75h2.74c.36,0,.65-.69.78-1.89l2.21-12.11h-4.58l.29-4.76h13l.16-2.56h6.07l-.15,2.56h13.29l-.29,4.76H143.41l-.33,1.84h21.83l-.78,12.63C164,32.32,162.18,33.8,159,33.8Zm-12.13-.61H159c2.88,0,4.36-1.21,4.51-3.71l.74-12H142.34l.56-3.07H165l.21-3.52H151.91l.16-2.56h-4.84l-.16,2.56h-13l-.22,3.52h4.66l-2.34,12.82c-.06.58-.27,2.42-1.39,2.42h-2.16l-.22,3.52h5.39c1.14,0,1.92-1.08,2.32-3.2l1.56-8.67h17.8L159,28.2c0,.35-.21,1.17-1.49,1.17H147.1ZM162.8,8.9h-6.19l.1-1.58H143.3l-.1,1.58h-6l.1-1.58h-4.18l.31-5.05h4.18L137.68.4h6l-.11,1.87H157L157.13.4h6.19l-.11,1.87h3.73l-.31,5.05H162.9Zm-5.53-.62h4.95l.09-1.58h3.74l.23-3.81h-3.73L162.66,1h-4.94l-.12,1.87H143L143.07,1h-4.81l-.11,1.87H134l-.23,3.81h4.17l-.09,1.58h4.8l.1-1.58h14.65Z"/><path class="cls-2" d="M181.62.57l-4,9.89-1.41,23h-5l1.19-19.31h-3.59l.31-5h3c.51,0,.94-.47,1.3-1.43L176.2.57Zm7.14.58-.83,13.59h5.86c.66,0,1-.69,1.12-2.12l.55-8.9h5.16L200,14.59A5.26,5.26,0,0,1,198.46,18a4.17,4.17,0,0,1-3.08,1.13h-7.73l-.54,8.9c0,.59.27.85.93.85H200.5l-.29,4.58h-15.6c-2,0-3-.92-2.84-2.72L183.6,1.15Z"/><path class="cls-2" d="M200.51,33.8h-15.9A3.34,3.34,0,0,1,182.1,33a2.81,2.81,0,0,1-.63-2.19L183.31.84h5.78l-.83,13.59h5.53c.57,0,.76-1,.81-1.83l.56-9.19H201l-.69,11.2a5.53,5.53,0,0,1-1.58,3.64,4.45,4.45,0,0,1-3.3,1.23h-7.44l-.53,8.61a.51.51,0,0,0,.09.38.78.78,0,0,0,.54.14h12.79ZM183.89,1.46,182.08,30.8a2.26,2.26,0,0,0,.48,1.74,2.72,2.72,0,0,0,2.05.65h15.31l.25-4H188a1.28,1.28,0,0,1-1-.34,1,1,0,0,1-.25-.83l.56-9.2h8a3.89,3.89,0,0,0,2.86-1,4.87,4.87,0,0,0,1.4-3.24L200.29,4h-4.54l-.53,8.62c-.1,1.6-.58,2.41-1.43,2.41H187.6l.83-13.59ZM176.48,33.8h-5.64L172,14.5h-3.59l.34-5.64h3.3c.46,0,.8-.66,1-1.22L176,.26h6.09l-4.17,10.26Zm-5-.61h4.4l1.4-22.8L181.16.87h-4.75l-2.75,7c-.39,1.07-.93,1.62-1.58,1.62h-2.71l-.27,4.4h3.58Z"/><path class="cls-2" d="M222.77.71l.17,2a1,1,0,0,0,1.07,1h1.43l-.22,3.59h-4.14c-1.76,0-2.81-.66-3.17-2L217,.71ZM211.6.71l.31,2a1,1,0,0,0,1.08,1h2.56l-.22,3.59h-5.27c-1.76,0-2.82-.66-3.18-2l-1-4.58Zm23.71,5.17a2.36,2.36,0,0,1-2.51,1.43h-5.86l.22-3.59h2.42a.67.67,0,0,0,.72-.41l.9-2.6H237Zm1.48,8.71h-5.17l.13-2.12h-22.3l-.13,2.12h-5.17l.4-6.44h32.63Zm-4.46.44-.3,4.88-3.41,1.86h7.73l-.28,4.44h-12l-.31,5c-.11,1.69-1.33,2.57-3.6,2.57H207.69l.26-4.14h9.3c.66,0,1-.22,1-.73l.16-2.71h-15l.27-4.44h16.92l5-2.6H206.18l.25-4.14Z"/><path class="cls-2" d="M220.15,34.1H207.36l.3-4.76h9.59c.7,0,.72-.27.73-.44l.14-2.38h-15l.31-5.06h17.14l3.8-2H205.85l.28-4.58h-2.31l.44-7.06h33.25l-.43,7.06h-4.43l-.32,5.2-2.51,1.36h6.85l-.31,5.06h-12l-.29,4.72C224,32.55,223.23,34.1,220.15,34.1ZM208,33.48h12.13c2.09,0,3.2-.77,3.29-2.27l.33-5.31h12l.24-3.82h-7.4l-.15-.58,3.26-1.78.27-4.38H206.72l-.22,3.52h19.13l.14.59-5.06,2.63H204l-.24,3.82h15l-.19,3c0,.46-.28,1-1.34,1h-9Zm1.6-18.75H231.3l.12-2H209.74ZM232,14.29h4.55l.36-5.83h-32l-.36,5.83H209l.14-2.13h22.92Zm.85-6.68h-6.19l.26-4.2h2.71c.32,0,.39-.1.44-.22L231,.4h6.4L235.6,6A2.63,2.63,0,0,1,232.8,7.61ZM227.27,7h5.53c1.19,0,1.91-.4,2.22-1.22L236.52,1h-5.1l-.82,2.39a1,1,0,0,1-1,.61h-2.13Zm-1.76.61h-4.43c-1.91,0-3.08-.75-3.47-2.24l-1-5h6.41l.2,2.3c.08.5.3.71.76.71h1.76ZM217.39,1l.82,4.21c.31,1.18,1.25,1.77,2.87,1.77h3.85l.18-3H224a1.31,1.31,0,0,1-1.38-1.24L222.49,1Zm-1.77,6.59h-5.56c-1.92,0-3.08-.75-3.47-2.24L205.5.4h6.36l.36,2.28c.08.52.31.73.77.73h2.89ZM206.27,1l.92,4.2C207.5,6.41,208.44,7,210.06,7h5l.18-3H213a1.29,1.29,0,0,1-1.38-1.24L211.33,1Z"/><path class="cls-2" d="M250.86,14.67l.23,12.39c0,2.24.77,3.36,2.11,3.36h1.66l-.21,3.51h3.65c1.31,0,2.16-1.16,2.56-3.4l2-12.34h-4.36l-1.6,10.14a2.58,2.58,0,0,1-1.09,1.57l.21-3.39h-1c-.41,0-.29-.38-.32-1.16l.06-14.88h-4.4l.12-1.9h4.8l.26-4.22h-4.81L251,.4h-4.37l-.24,4h-5l-.26,4.22h5l-.12,1.9h-4.54l-1.95,17c-.09,1-.42,1.46-.94,1.46h-.27l-.25,4.1h1.61a3.33,3.33,0,0,0,2.33-1,4.34,4.34,0,0,0,1.1-2.72l1.68-14.67h.91l-1.13,19.41h4.36l1.2-19.42ZM263.38,1.15l-.79,2.61h1.64l.19-3.21h4.67l-.2,3.21H275l-.27,4.51h-6.12l-.22,3.5h6.72l-.29,4.67h-6.71L267,34.08h-4.66l1.08-17.64h-8.31l.29-4.67h8.31l.22-3.5h-2.76a3,3,0,0,1-3,1.9h-2.65l.27-4.36H257c.26,0,.5-.26.72-.79l1.17-3.87Zm9.58,17,.35,10.63c.1.82.41,1.19,1,1.19L274,33.93h-2.5q-2.52,0-2.7-3.36l-.24-12.38Z"/><path class="cls-2" d="M267.31,34.39H262l.89-14.49-1.75,10.68c-.44,2.43-1.4,3.66-2.87,3.66h-4l.21-3.51H253.2c-1.07,0-2.35-.63-2.41-3.66L250.55,15h-.13l-1.2,19.41h-5L245.38,15h-.31l-1.65,14.39a4.69,4.69,0,0,1-1.19,2.91,3.61,3.61,0,0,1-2.55,1.1h-1.94l.29-4.72h.56c.43,0,.58-.64.64-1.18l2-17.32h4.53l.08-1.28h-5l.3-4.84h5l.24-3.95h5l-.25,4h4.81l-.09,1.46H257c.07,0,.23-.13.43-.6L258.64.84h5.16L263,3.45h.94l.19-3.21h5.28l-.19,3.21h6.11L275,8.58H268.9l-.18,2.89h6.72l-.33,5.28H268.4l-.07,1.13h4.93l.36,10.93c.11.89.47.89.66.89h.33l-.28,4.54h-2.79c-1.28,0-2.84-.64-3-3.65l-.24-12.13Zm-4.62-.62h4l1.09-17.64h6.71l.25-4h-6.71L268.32,8h6.12l.24-3.89h-6.12l.2-3.21h-4.05l-.19,3.21h-2.35L263,1.45H259.1L258,5.11c-.11.27-.42,1-1,1h-.91l-.23,3.74h2.32a2.74,2.74,0,0,0,2.75-1.72L261,8h3.29L264,12.08h-8.31l-.25,4h8.31Zm-17.79,0h3.74l1.2-19.42,1.32,0,.24,12.69c.07,3.05,1.37,3.05,1.8,3.05h2L255,33.62h3.32c1.13,0,1.89-1.06,2.26-3.14l2-12h-3.74l-1.55,9.88A2.88,2.88,0,0,1,256,30.16l-.5.31.22-3.66h-.67a.57.57,0,0,1-.44-.16c-.19-.19-.19-.46-.19-.84,0-.13,0-.28,0-.45l.06-14.58h-4.42l.15-2.52H255l.23-3.6h-4.81l.24-3.95h-3.74l-.25,4h-5l-.22,3.6h5l-.15,2.52h-4.57l-1.91,16.77c-.14,1.4-.74,1.71-1.22,1.73l-.22,3.48h1.28a3,3,0,0,0,2.12-.92,4.18,4.18,0,0,0,1-2.54l1.71-14.94H246Zm24-15.27.24,12.06c.11,2.06.9,3.06,2.39,3.06h2.21l.21-3.34c-.54-.13-.86-.61-1-1.43l-.34-10.35Zm-13.86,7.69h1.33l-.18,3a2.29,2.29,0,0,0,.43-.9l1.63-10.38h4.79l.07-1.13h-8.05l0,8.6v.46C255,26,255,26.11,255.05,26.19Zm-.26-16h.31V12l0-.55h8.32l.18-2.89h-2.24a3.33,3.33,0,0,1-3.22,1.9h-3l.09-1.6H250.8l-.08,1.28Z"/><path class="cls-2" d="M311.87,1.44l-.31,5.13c-.12,1.83-1.2,2.75-3.18,2.75h-4.94l1.93,18.61c.09.88.4,1.28.95,1.28h4L310,33.64H303.3c-1.84,0-2.78-1.24-2.92-3.73L298.46,9.32H278.31l.28-4.58H298L297.62.31h4.87L303,4.74h2.86c.44,0,.71-.29.75-.88l.15-2.42ZM297,17.05h-6l-.65,10.58h7.73l-.28,4.44H277.64l.27-4.44h7.29l.66-10.58h-6.45l.27-4.43H297.3Z"/><path class="cls-2" d="M310.33,34h-7c-2,0-3.08-1.35-3.23-4L298.18,9.63H278l.32-5.2h19.4L297.28,0h5.49l.46,4.43h2.58c.12,0,.4,0,.44-.59l.17-2.7h5.78l-.34,5.45c-.12,2-1.32,3-3.48,3h-4.6l1.9,18.27c.1,1,.46,1,.64,1h4.32ZM278.64,9h20.1l1.94,20.87c.18,3.1,1.58,3.45,2.62,3.45h6.44l.24-3.81h-3.66c-.73,0-1.15-.53-1.26-1.56l-2-19h5.28c1.83,0,2.77-.8,2.87-2.46l.29-4.8H307l-.13,2.13c-.05.73-.44,1.17-1.06,1.17h-3.14L302.21.62H298l.42,4.43h-19.5Zm19.48,23.37H277.31l.31-5.05h7.29l.62-10h-6.45l.31-5h18.24l-.31,5h-6l-.61,10h7.73ZM278,31.76h19.56l.24-3.82H290l.69-11.2h6l.23-3.81H280l-.23,3.81h6.44l-.69,11.2h-7.28Z"/><path class="cls-2" d="M341.47,1.3l2.15,4.36c.34,1,.75,1.5,1.23,1.5H348l-.26,4.28h-5.46a2.43,2.43,0,0,1-2.15-1.31l-2.76-4.69H325.91l-3.33,4.69a2.89,2.89,0,0,1-2.32,1.31h-5.45l.26-4.28h3.15c.44,0,.95-.48,1.45-1.5l2.65-4.36Zm4.36,15.46H315.91l.26-4.29H346.1Zm.86,7H326.47l-4.29,5.31h17.18c.66,0,1-.22,1-.73l.14-2.27h5l-.24,4a3,3,0,0,1-1.22,2,5,5,0,0,1-3.26,1.17H314.75l.18-3a2.21,2.21,0,0,1,.81-1.21l4.39-5.24h-5.79l.27-4.28H347Z"/><path class="cls-2" d="M340.83,33.51H314.42l.2-3.33a2.42,2.42,0,0,1,.91-1.41l3.94-4.71H314l.3-4.9h33l-.3,4.9H326.61l-3.78,4.69h16.53c.7,0,.72-.26.73-.44l.16-2.56h5.63l-.26,4.32a3.34,3.34,0,0,1-1.33,2.2A5.32,5.32,0,0,1,340.83,33.51Zm-25.75-.62h25.75a4.67,4.67,0,0,0,3.06-1.1A2.7,2.7,0,0,0,345,30l.23-3.66h-4.4l-.13,2c0,.47-.28,1-1.34,1H321.54l4.78-5.93h20.07l.23-3.66H314.9l-.23,3.66h6.12L316,29.19c-.65.61-.73.92-.74,1Zm31-15.83H315.58l.3-4.9h30.55Zm-29.88-.61h29.3l.23-3.67H316.46ZM348,11.75h-5.75a2.75,2.75,0,0,1-2.42-1.46L337.2,5.75H326.07l-3.24,4.55a3.17,3.17,0,0,1-2.57,1.45h-5.78l.3-4.9h3.44c.12,0,.57-.1,1.17-1.33L322.14,1h19.53l2.23,4.53c.29.87.62,1.33,1,1.33h3.48ZM325.75,5.13h11.8L340.39,10a2.15,2.15,0,0,0,1.89,1.17h5.17l.22-3.67h-2.82c-.64,0-1.14-.56-1.52-1.72l-2.05-4.14H322.49l-2.56,4.21c-.53,1.08-1.11,1.65-1.71,1.65h-2.86l-.23,3.67h5.13a2.6,2.6,0,0,0,2.07-1.2Z"/><path class="cls-2" d="M383.41,10.31h-6l-1.13,18.31h6.89l-.27,4.44H363.84l.27-4.44h7.29l1.13-18.31h-6.27L366.53,6h6.26l.34-5.45H378L377.66,6h6ZM358.82,1,360,2.43a.74.74,0,0,0,.72.3h4l-.22,3.59h-5.72c-1.46,0-2.39-.41-2.78-1.29l-1.76-4Zm5.29,6.74-.27,4.44L361.66,16h2.68l1.09,5.53c.1.74.37,1.07.77,1.07h1.28l-.24,4h-2.86c-1.43,0-2.29-.84-2.59-2.53l-1.15-6.23-.17.3-.94,15.35h-4.29l.47-7.62a4.9,4.9,0,0,1-2.34.47h-3.29l.24-4h1.58c.62,0,1-.11,1.12-.36l6.55-10.08h-7.72l.25-4.14Z"/><path class="cls-2" d="M359.82,33.8h-4.91l.46-7.43a6.12,6.12,0,0,1-2,.29h-3.62L350,22h1.87c.69,0,.82-.14.84-.19L359,12.19h-7.48l.29-4.75h12.63l-.29,4.83-2,3.44h2.4l1.14,5.78c.07.55.23.82.47.82h1.61l-.28,4.61h-3.15c-1.09,0-2.49-.48-2.89-2.78l-.81-4.35Zm-4.25-.61h3.66l.94-15.13.61-1.1L362.09,24c.28,1.53,1,2.27,2.29,2.27H367l.21-3.37h-1c-.41,0-.93-.23-1.08-1.33l-1-5.27h-2.95l2.41-4.24.25-4h-11.4l-.22,3.52h8l-6.86,10.56c-.22.45-.89.5-1.38.5h-1.29L350.4,26h3a4.63,4.63,0,0,0,2.19-.43l.49-.27Zm27.61.18H363.51l.31-5.06h7.29l1.09-17.69h-6.26l.3-4.91h6.26l.34-5.45h5.49L378,5.71h6l-.3,4.91h-6L376.6,28.31h6.89Zm-19-.62h18.42l.24-3.82h-6.89L377.11,10h6l.22-3.67h-6l.33-5.46h-4.25l-.34,5.46h-6.26L366.59,10h6.27l-1.17,18.93H364.4Zm.62-26.12h-6c-1.63,0-2.63-.48-3.06-1.47l-2-4.46H359l1.25,1.54c.06.09.11.18.48.18h4.36ZM354.71,1.31l1.58,3.6c.32.74,1.14,1.1,2.49,1.1h5.43l.18-3h-3.7a1,1,0,0,1-1-.45l-1-1.28Z"/></g></g></svg>