<?xml version="1.0" encoding="utf-8"?>
<!-- Generator: Adobe Illustrator 25.2.1, SVG Export Plug-In . SVG Version: 6.00 Build 0)  -->
<svg version="1.1" id="レイヤー_1" xmlns="http://www.w3.org/2000/svg" xmlns:xlink="http://www.w3.org/1999/xlink" x="0px"
	 y="0px" viewBox="0 0 80 36.5" style="enable-background:new 0 0 80 36.5;" xml:space="preserve">
<style type="text/css">
	.st0{fill:#E85298;}
	.st1{fill:#FFFFFF;}
</style>
<g id="レイヤー_2_1_">
	<g id="レイアウト">
		<path class="st0" d="M18.7,0C8.7,0,0.5,8.2,0.5,18.2s8.2,18.2,18.2,18.2c10.1,0,18.2-8.2,18.2-18.2l0,0C37,8.2,28.8,0,18.7,0
			L18.7,0z"/>
		<path class="st1" d="M27.2,25.9c-1.3,1.8-3.5,2.5-5.6,1.8c-3-1.1-5.7-3-7.7-5.4c-2.1-2.4-3.5-5.4-4.1-8.5c-0.6-3.4,2.5-5,2.8-5.2
			c0.7-0.4,1.6-0.2,2.1,0.4c0.7,1.3,1.3,2.6,1.7,4.1c0.1,0.6-0.6,1.3-1.3,1.5s-0.7,0.5-0.7,0.5s0.4,1.5,2.9,4.4s3.9,3.6,3.9,3.6
			s0.4,0.1,0.6-0.6s0.9-1.1,1.6-1c1.3,0.6,2.6,1.4,3.7,2.3C27.7,24.4,27.7,25.3,27.2,25.9z"/>
		<path class="st0" d="M61.4,0C51.2,0,43,8.2,43,18.2s8.2,18.2,18.2,18.2s18.2-8.2,18.2-18.2l0,0C79.6,8.2,71.4,0,61.4,0L61.4,0z"/>
		<polygon class="st1" points="52.4,13.4 52.4,24.2 70.6,24.2 70.6,13.4 61.5,19.3 		"/>
		<polygon class="st1" points="69.6,12.3 53.2,12.3 61.5,17.8 		"/>
	</g>
</g>
</svg>
