<svg xmlns="http://www.w3.org/2000/svg" viewBox="0 0 226 47.83"><defs><style>.cls-1{fill:#fff;}</style></defs><g id="レイヤー_2" data-name="レイヤー 2"><g id="JP"><path class="cls-1" d="M29,39.36h1.54l1.91,5.77,1.93-5.77h1.53l1.39,8.26H35.8l-.89-5.21-1.75,5.21H31.77L30,42.41l-.9,5.21H27.59Z"/><path class="cls-1" d="M43.39,39.36H45l3.17,8.26H46.53l-.65-1.7H42.51l-.67,1.7H40.21Zm.81,2.19-1.11,2.84H45.3Z"/><path class="cls-1" d="M51.79,39.36h1.66a5.34,5.34,0,0,1,1.95.25,2,2,0,0,1,.94.81,2.52,2.52,0,0,1,.35,1.34,2.28,2.28,0,0,1-.39,1.36,2.34,2.34,0,0,1-1.18.83l2,3.67H55.36L53.5,44.13h-.14v3.49H51.79Zm1.57,3.23h.49a1.92,1.92,0,0,0,1-.19.76.76,0,0,0,.29-.66.82.82,0,0,0-.14-.47.84.84,0,0,0-.38-.29,3.22,3.22,0,0,0-.86-.08h-.43Z"/><path class="cls-1" d="M60.59,39.36h1.58v5.35a2.74,2.74,0,0,0,.12,1,1,1,0,0,0,.4.46,1.31,1.31,0,0,0,.67.17,1.29,1.29,0,0,0,.72-.19,1,1,0,0,0,.41-.49,3.42,3.42,0,0,0,.12-1.12V39.36h1.58v4.93A7.34,7.34,0,0,1,66.05,46a2.48,2.48,0,0,1-.54.93,2.56,2.56,0,0,1-.91.67,3.21,3.21,0,0,1-1.2.21,3,3,0,0,1-1.57-.41,2.45,2.45,0,0,1-.95-1,5.51,5.51,0,0,1-.29-2.1Z"/><path class="cls-1" d="M69.73,39.36h1.68l1.55,3,1.53-3h1.67l-2.42,4.69v3.57H72.16V44.05Z"/><path class="cls-1" d="M83.65,39.16a4.12,4.12,0,0,1,3,1.26,4.24,4.24,0,0,1,1.26,3.1,4.19,4.19,0,0,1-1.24,3.06,4.32,4.32,0,0,1-6.11,0,4.43,4.43,0,0,1-.66-5.24,4.31,4.31,0,0,1,3.74-2.15Zm0,1.53a2.6,2.6,0,0,0-1.93.8,2.78,2.78,0,0,0-.78,2,2.66,2.66,0,0,0,1,2.17,2.74,2.74,0,0,0,1.76.62,2.55,2.55,0,0,0,1.9-.81,2.72,2.72,0,0,0,.79-2,2.8,2.8,0,0,0-.79-2A2.61,2.61,0,0,0,83.63,40.69Z"/><path class="cls-1" d="M96,40.49l-1.17,1a1.65,1.65,0,0,0-1.24-.85.77.77,0,0,0-.51.17.48.48,0,0,0-.2.37.64.64,0,0,0,.14.39,10.59,10.59,0,0,0,1.16,1.06c.6.51,1,.82,1.09,1a3.47,3.47,0,0,1,.68.93,2.32,2.32,0,0,1,.2,1,2.2,2.2,0,0,1-.71,1.68,2.57,2.57,0,0,1-1.83.66,2.72,2.72,0,0,1-1.54-.43A3.46,3.46,0,0,1,91,46l1.32-.8c.4.73.86,1.1,1.38,1.1a1,1,0,0,0,.68-.24.71.71,0,0,0,.27-.54.91.91,0,0,0-.21-.56,5.63,5.63,0,0,0-.91-.86,9.41,9.41,0,0,1-1.75-1.7,2.19,2.19,0,0,1-.39-1.2A2,2,0,0,1,92,39.77a2.28,2.28,0,0,1,1.62-.61,2.59,2.59,0,0,1,1.18.28A4.34,4.34,0,0,1,96,40.49Z"/><path class="cls-1" d="M100,39.36h1.59v3.12h2.76V39.36h1.59v8.26h-1.59V44h-2.76v3.62H100Z"/><path class="cls-1" d="M110,39.36h1.56v8.26H110Z"/><path class="cls-1" d="M128.74,40.82l-1.1,1a3.41,3.41,0,0,0-2.53-1.18,2.77,2.77,0,0,0-2.8,2.8,3,3,0,0,0,.36,1.47,2.52,2.52,0,0,0,1,1,3.19,3.19,0,0,0,2.71.11,5,5,0,0,0,1.25-.93l1.06,1.11A5.86,5.86,0,0,1,127,47.49a4.71,4.71,0,0,1-1.86.34A4.3,4.3,0,0,1,122,46.61a4.22,4.22,0,0,1-1.23-3.13,4.34,4.34,0,0,1,.56-2.2,4.16,4.16,0,0,1,1.6-1.54,4.52,4.52,0,0,1,2.25-.58,4.78,4.78,0,0,1,3.6,1.66Z"/><path class="cls-1" d="M132.41,39.36H134v3.12h2.76V39.36h1.59v8.26h-1.59V44H134v3.62h-1.59Z"/><path class="cls-1" d="M142.54,39.36h4.51V40.9h-3v1.5h3v1.51h-3v2.17h3v1.54h-4.51Z"/><path class="cls-1" d="M151.62,39.36h1.53l1.91,5.77L157,39.36h1.53l1.38,8.26h-1.52l-.88-5.21-1.76,5.21h-1.38l-1.74-5.21-.91,5.21h-1.53Z"/><path class="cls-1" d="M163.35,39.36h1.56v8.26h-1.56Z"/><path class="cls-1" d="M176.58,40.82l-1.1,1A3.41,3.41,0,0,0,173,40.68a2.77,2.77,0,0,0-2.8,2.8A3.07,3.07,0,0,0,170.5,45a2.61,2.61,0,0,0,1,1,3.19,3.19,0,0,0,2.71.11,5,5,0,0,0,1.25-.93l1.06,1.11a6,6,0,0,1-1.73,1.24,4.71,4.71,0,0,1-1.86.34,4.3,4.3,0,0,1-3.15-1.22,4.22,4.22,0,0,1-1.23-3.13,4.34,4.34,0,0,1,.56-2.2,4.16,4.16,0,0,1,1.6-1.54,4.52,4.52,0,0,1,2.25-.58,4.62,4.62,0,0,1,2,.43A4.7,4.7,0,0,1,176.58,40.82Z"/><path class="cls-1" d="M182.77,39.36h1.6l3.17,8.26h-1.63l-.65-1.7h-3.37l-.67,1.7h-1.63Zm.81,2.19-1.11,2.84h2.21Z"/><path class="cls-1" d="M191.06,39.36h1.57v6.76h2.29v1.5h-3.86Z"/><path class="cls-1" d="M10.67,3.94,11.83.44h4.36l-1.13,3.5h9.21l-1.1,17.93c0,.52.18.77.64.77H26l-.22,3.59H21.46c-1.89,0-2.74-1.06-2.62-3.13l.95-15.37h-6L11,16.28l1.11,1.14a2.79,2.79,0,0,0,2.17,1h2.13L16.22,22H12.09a2.07,2.07,0,0,1-1.7-.8l-.7-.77-1,3.21c-.57,1.81-1.43,2.72-2.58,2.72H.26l.22-3.58H4c.34,0,.62-.32.86-1l1.63-4.93-4.6-5.08H6.75l1,1.06,1.7-5.1H1.75L2,3.94Z"/><path class="cls-1" d="M6.08,26.59H0l.25-4.07H4c.22,0,.44-.28.64-.82l1.57-4.79L1.3,11.53H6.85l.79.84L9.1,8H1.49L1.75,3.7H10.5L11.66.2h4.87L15.39,3.7h9.14L23.41,21.89a.61.61,0,0,0,.09.42.43.43,0,0,0,.31.09H26.3l-.25,4.07H21.46a2.85,2.85,0,0,1-2.16-.77,3.38,3.38,0,0,1-.7-2.61L19.53,8H14l-2.69,8.24,1,1.05a2.59,2.59,0,0,0,2,.9h2.38l-.25,4.07H12.09a2.33,2.33,0,0,1-1.89-.89l-.41-.46-.9,2.81C8.28,25.61,7.34,26.59,6.08,26.59ZM.51,26.1H6.08c1,0,1.81-.86,2.35-2.55l1.16-3.62,1,1.09a1.83,1.83,0,0,0,1.52.72H16l.19-3.1H14.31A3,3,0,0,1,12,17.59l-1.2-1.25,2.89-8.85h6.4l-1,15.63a2.93,2.93,0,0,0,.56,2.25,2.4,2.4,0,0,0,1.81.62h4.13l.2-3.1h-2a.91.91,0,0,1-.67-.25,1,1,0,0,1-.22-.78L24,4.18H14.73L15.86.68H12l-1.16,3.5H2.21L2,7.49H9.77L7.85,13.3,6.64,12H2.39l4.32,4.77L5,21.86C4.86,22.35,4.55,23,4,23H.71Z"/><path class="cls-1" d="M55.55,5.49H52.63l-.08,1.23H48.19l.08-1.23h-11L37.2,6.72H33L33,5.49H29.76L30,2h3.27L33.34.56h4.24L37.49,2h11L48.57.56h4.36L52.84,2h2.93Zm-10.92.8-.12,2H54.92l-.2,3.24H37.4l-.35,1.93H54.17l-.59,9.63c-.13,2.07-1.4,3.13-3.78,3.13H40.05l.21-3.47h8.41c.57,0,.9-.23.93-.69l.31-5.13H36.43l-1.18,6.59c-.34,1.78-1,2.7-2.06,2.7H28.72l.2-3.24h1.92c.43,0,.72-.55.85-1.69l1.78-9.76H29.85l.2-3.24H40.23l.13-2Z"/><path class="cls-1" d="M49.8,26.47h-10L40,22.52h8.64c.66,0,.68-.34.69-.46l.3-4.88h-13l-1.14,6.4c-.37,1.92-1.14,2.89-2.3,2.89H28.46l.23-3.72h2.15c.28,0,.5-.54.61-1.48l1.73-9.48H29.59l.23-3.73H40l.12-2h4.76l-.12,2H55.18L55,11.79H37.6l-.26,1.43H54.43l-.61,9.9C53.69,25.31,52.29,26.47,49.8,26.47ZM40.31,26H49.8c2.26,0,3.42-.95,3.54-2.9l.57-9.38H36.76l.43-2.41h17.3l.17-2.76H44.25l.12-2H40.58l-.12,2H30.28l-.17,2.76h3.65l-1.83,10c-.05.46-.21,1.89-1.09,1.89h-1.7L29,26h4.22c.89,0,1.51-.84,1.82-2.5l1.22-6.8H50.17l-.33,5.4c0,.27-.17.91-1.17.91H40.49ZM52.78,7H47.93L48,5.73H37.51L37.43,7H32.7l.08-1.24H29.51l.24-3.95H33L33.11.32h4.73l-.09,1.46h10.5L48.34.32h4.85L53.1,1.78H56l-.24,4H52.85Zm-4.33-.49h3.87l.08-1.23h2.92l.19-3H52.58L52.67.8H48.8l-.09,1.46H37.24L37.33.8H33.57l-.09,1.46H30.21l-.19,3h3.27l-.07,1.23H37l.07-1.23H48.52Z"/><path class="cls-1" d="M67.52.44,64.37,8.19l-1.11,18H59.33l.93-15.12H57.45l.24-3.93h2.36c.4,0,.74-.37,1-1.12L63.27.44ZM73.11.9l-.65,10.64h4.59c.51,0,.8-.54.87-1.66l.43-7H82.4l-.53,8.52a4.07,4.07,0,0,1-1.17,2.7,3.26,3.26,0,0,1-2.41.88H72.24l-.43,7c0,.46.22.66.74.66H82.3l-.22,3.59H69.86c-1.58,0-2.31-.72-2.22-2.12L69.07.9Z"/><path class="cls-1" d="M82.31,26.47H69.86a2.58,2.58,0,0,1-2-.66,2.19,2.19,0,0,1-.5-1.72L68.84.66h4.53L72.71,11.3h4.34c.45,0,.59-.78.63-1.43l.44-7.2h4.53l-.54,8.77a4.32,4.32,0,0,1-1.24,2.86,3.5,3.5,0,0,1-2.58,1H72.47L72.05,22a.42.42,0,0,0,.07.29.64.64,0,0,0,.43.11h10Zm-13-25.33-1.41,23a1.76,1.76,0,0,0,.37,1.36,2.14,2.14,0,0,0,1.61.51h12l.19-3.1H72.55a1,1,0,0,1-.78-.27.8.8,0,0,1-.2-.65l.44-7.2h6.28A3,3,0,0,0,80.53,14a3.78,3.78,0,0,0,1.1-2.54l.51-8.26H78.58l-.42,6.74c-.07,1.26-.45,1.9-1.11,1.9H72.2l.65-10.65Zm-5.8,25.33H59.07L60,11.36H57.19l.28-4.42h2.58c.35,0,.62-.52.78-1L63.11.2h4.77l-3.27,8ZM59.59,26H63l1.1-17.86,3-7.45H63.44L61.29,6.15C61,7,60.56,7.43,60.05,7.43H57.92l-.21,3.44h2.81Z"/><path class="cls-1" d="M99.74.56l.13,1.58a.8.8,0,0,0,.85.77h1.11l-.17,2.81H98.42c-1.38,0-2.21-.52-2.48-1.58L95.24.56ZM91,.56l.25,1.58a.78.78,0,0,0,.84.77h2l-.17,2.81H89.79c-1.38,0-2.21-.52-2.49-1.58L86.52.56Zm18.57,4a1.83,1.83,0,0,1-2,1.12H103l.17-2.81h1.9a.53.53,0,0,0,.56-.32l.7-2h4.5Zm1.16,6.83h-4l.11-1.66H89.31l-.1,1.66h-4l.31-5H111Zm-3.49.34L107,15.59l-2.67,1.46h6.05l-.21,3.47h-9.41l-.24,3.93c-.08,1.32-1,2-2.82,2H87.94l.2-3.24h7.28c.52,0,.79-.17.81-.58l.13-2.12H84.6l.21-3.47H98.07L102,15H86.75l.2-3.24Z"/><path class="cls-1" d="M97.69,26.7h-10L87.91,23h7.51c.55,0,.56-.21.57-.35l.11-1.87H84.34l.25-4H98l3-1.55H86.49l.22-3.59H84.9l.34-5.53h26.05L111,11.67h-3.47l-.25,4.07-2,1.07h5.36l-.24,4H101l-.23,3.71C100.69,25.49,100.1,26.7,97.69,26.7Zm-9.5-.48h9.5c1.64,0,2.5-.6,2.58-1.78l.25-4.16h9.41l.19-3h-5.8l-.12-.45,2.56-1.4L107,12H87.17L87,14.77h15l.11.46-4,2.06H85l-.18,3H96.62l-.15,2.38c0,.36-.22.8-1,.8H88.36Zm1.25-14.69h17l.09-1.52h-17Zm17.49-.34h3.56l.28-4.57H85.7l-.28,4.57H89l.1-1.67h18ZM107.6,6h-4.85L103,2.67h2.12c.24,0,.3-.08.34-.17l.75-2.18h5l-1.38,4.37A2.07,2.07,0,0,1,107.6,6Zm-4.33-.48h4.33c.93,0,1.49-.31,1.73-1L110.51.8h-4l-.64,1.87a.77.77,0,0,1-.79.48h-1.67ZM101.89,6H98.42C96.92,6,96,5.37,95.7,4.2L95,.32h5l.16,1.8c.06.38.23.55.6.55h1.37ZM95.53.8l.64,3.3c.25.92,1,1.38,2.25,1.38h3l.15-2.33h-.86a1,1,0,0,1-1.08-1L99.52.8ZM94.14,6H89.79c-1.5,0-2.42-.59-2.72-1.76L86.22.32h5l.28,1.78c.06.4.24.57.6.57h2.27ZM86.82.8l.72,3.29c.24.93,1,1.39,2.25,1.39h3.9l.14-2.33H92.08a1,1,0,0,1-1.08-1L90.79.8Z"/><path class="cls-1" d="M121.74,11.49l.18,9.7c0,1.76.6,2.63,1.65,2.63h1.3l-.16,2.75h2.86c1,0,1.69-.91,2-2.66l1.59-9.67h-3.42l-1.25,8a2,2,0,0,1-.85,1.22l.17-2.65H125c-.32,0-.23-.3-.25-.91l0-11.65h-3.44l.09-1.49h3.77l.2-3.3h-3.77l.19-3.1h-3.41l-.19,3.1h-3.89l-.2,3.3H118L118,8.2h-3.56l-1.52,13.34c-.08.76-.33,1.14-.74,1.14h-.21l-.2,3.22H113a2.64,2.64,0,0,0,1.83-.79,3.44,3.44,0,0,0,.86-2.13L117,11.49h.71l-.89,15.19h3.42l.94-15.2ZM131.54.9l-.62,2h1.29l.15-2.51H136l-.15,2.51h4.79l-.22,3.54h-4.79l-.17,2.74h5.26l-.23,3.65h-5.26l-.85,13.81h-3.65l.85-13.81h-6.51l.23-3.65h6.51L132,6.48h-2.16A2.38,2.38,0,0,1,127.46,8h-2.08l.21-3.41h.94c.2,0,.39-.21.56-.62l.92-3ZM139,14.24l.28,8.33c.08.64.32.93.76.93l-.19,3.07h-2c-1.31,0-2-.88-2.11-2.63l-.19-9.7Z"/><path class="cls-1" d="M134.62,26.93h-4.13l.69-11.35L129.81,24c-.34,1.9-1.09,2.86-2.24,2.86h-3.12l.17-2.75h-1.05c-.83,0-1.84-.49-1.89-2.86l-.18-9.47h-.11l-.93,15.2h-3.9l.88-15.2h-.24L115.91,23a3.64,3.64,0,0,1-.93,2.28,2.83,2.83,0,0,1-2,.86h-1.51l.23-3.7h.43c.34,0,.46-.5.5-.92L114.18,8h3.54l.07-1H113.9l.24-3.78H118l.19-3.1h3.9l-.19,3.1h3.77l-.07,1.14h.91s.19-.1.34-.47l1-3.19h4l-.62,2.05H132l.15-2.51h4.14l-.16,2.51h4.79l-.24,4h-4.79L135.73,9H141l-.25,4.13h-5.26l-.05.89h3.86l.28,8.56c.09.7.37.7.52.7h.26l-.22,3.55h-2.18c-1,0-2.23-.5-2.36-2.86l-.19-9.49ZM131,26.44h3.17L135,12.63h5.25l.2-3.17h-5.26l.2-3.23h4.79l.19-3.05H135.6l.15-2.51h-3.16l-.16,2.51h-1.84l.63-2h-3L127.32,4c-.08.22-.32.79-.79.79h-.71l-.18,2.93h1.82a2.16,2.16,0,0,0,2.15-1.34l.06-.15h2.58l-.2,3.23h-6.52l-.19,3.17h6.51Zm-13.93,0H120l.94-15.2h1l.19,9.94c.06,2.39,1.08,2.39,1.41,2.39h1.56L125,26.33h2.61c.88,0,1.47-.83,1.76-2.46l1.54-9.38H128l-1.22,7.73a2.24,2.24,0,0,1-1,1.4l-.4.24.18-2.86H125a.46.46,0,0,1-.35-.13c-.15-.15-.14-.36-.14-.66v-.35l0-11.42h-3.46l.12-2H125l.17-2.82h-3.76L121.6.56h-2.93l-.2,3.09h-3.88l-.17,2.82h3.88l-.12,2h-3.57l-1.5,13.13c-.11,1.1-.58,1.35-1,1.36L112,25.65h1a2.34,2.34,0,0,0,1.66-.72,3.16,3.16,0,0,0,.79-2l1.34-11.7H118Zm18.8-12,.19,9.44c.09,1.61.7,2.4,1.88,2.4h1.72l.16-2.62c-.41-.1-.66-.47-.74-1.11l-.27-8.11Zm-10.85,6h1l-.14,2.33a2,2,0,0,0,.34-.71L127.54,14h3.74l.06-.89H125l0,6.74v.36A2.54,2.54,0,0,0,125,20.51ZM124.81,8h.25V9.41l0-.43h6.51l.14-2.26H130a2.6,2.6,0,0,1-2.52,1.49h-2.33L125.2,7h-3.51l-.06,1Z"/><path class="cls-1" d="M169.52,1.13l-.25,4c-.09,1.43-.94,2.15-2.48,2.15h-3.88l1.51,14.57c.08.69.32,1,.75,1h3.12l-.21,3.47H162.8c-1.43,0-2.18-1-2.29-2.92L159,7.3H143.23l.23-3.59h15.23L158.36.24h3.81l.36,3.47h2.24c.34,0,.56-.23.59-.69l.11-1.89ZM157.89,13.35h-4.7l-.51,8.29h6l-.21,3.47H142.71l.22-3.47h5.7l.51-8.29h-5l.21-3.47h13.8Z"/><path class="cls-1" d="M168.31,26.59H162.8c-1.56,0-2.41-1.06-2.53-3.16L158.79,7.54H143l.25-4.07h15.19L158.09,0h4.3l.36,3.47h2c.09,0,.32,0,.34-.46l.13-2.12h4.53l-.26,4.27c-.09,1.56-1,2.38-2.72,2.38h-3.61l1.49,14.31c.08.78.36.78.5.78h3.38ZM143.49,7.06h15.74l1.53,16.34c.13,2.42,1.23,2.7,2,2.7h5l.19-3h-2.87c-.57,0-.9-.41-1-1.22L162.64,7.06h4.15c1.42,0,2.16-.63,2.24-1.93l.23-3.76H165.7L165.6,3c0,.57-.35.91-.83.91h-2.46L162,.48h-3.33L159,4H143.68Zm15.25,18.29H142.45l.25-4h5.71l.48-7.81h-5l.24-3.95h14.28l-.24,3.95h-4.7l-.48,7.81H159ZM143,24.87h15.32l.18-3h-6.05l.54-8.77h4.71l.18-3H144.54l-.19,3h5.05l-.54,8.77h-5.71Z"/><path class="cls-1" d="M192.7,1l1.68,3.41c.27.8.59,1.18,1,1.18h2.47L197.6,9h-4.27a1.92,1.92,0,0,1-1.69-1l-2.15-3.67h-9L177.9,7.93a2.25,2.25,0,0,1-1.81,1h-4.28L172,5.61h2.47c.34,0,.74-.38,1.13-1.18L177.7,1Zm3.41,12.1H172.68l.2-3.35h23.44Zm.67,5.48H181l-3.36,4.16H191c.52,0,.79-.17.81-.57l.11-1.78h3.93l-.19,3.12a2.29,2.29,0,0,1-1,1.55,3.82,3.82,0,0,1-2.55.92H171.77l.14-2.35a1.73,1.73,0,0,1,.64-.95L176,18.6h-4.53l.21-3.36H197Z"/><path class="cls-1" d="M192.19,26.24H171.51l.16-2.61a1.87,1.87,0,0,1,.71-1.1l3.08-3.69h-4.27l.24-3.84h25.81L197,18.84H181.06l-3,3.68H191c.55,0,.56-.21.57-.35l.13-2h4.41l-.21,3.38a2.52,2.52,0,0,1-1,1.72A4.12,4.12,0,0,1,192.19,26.24ZM172,25.76h20.16a3.68,3.68,0,0,0,2.4-.86,2.13,2.13,0,0,0,.87-1.38l.18-2.87h-3.45l-.09,1.55c0,.37-.23.8-1.06.8H177.09l3.74-4.64h15.72l.18-2.87H171.88l-.17,2.87h4.79l-3.77,4.5c-.5.48-.57.72-.57.8Zm24.31-12.4H172.42l.24-3.84h23.92Zm-23.41-.48h22.95l.18-2.87H173.11Zm24.9-3.68h-4.5a2.15,2.15,0,0,1-1.9-1.15L189.35,4.5h-8.72L178.1,8.07a2.48,2.48,0,0,1-2,1.13h-4.53l.23-3.84h2.7c.09,0,.44-.07.91-1L177.56.77h15.29l1.75,3.55c.23.69.49,1,.74,1h2.73ZM180.38,4h9.25l2.22,3.79a1.68,1.68,0,0,0,1.48.91h4l.18-2.87h-2.21c-.5,0-.89-.44-1.19-1.34l-1.6-3.25H177.83l-2,3.3c-.42.85-.87,1.29-1.34,1.29h-2.24l-.18,2.87h4a2,2,0,0,0,1.62-.94Z"/><path class="cls-1" d="M225.54,8.07h-4.71L220,22.42h5.39l-.21,3.47H210.21l.22-3.47h5.7L217,8.07h-4.91l.21-3.35h4.9l.27-4.28h3.81L221,4.72h4.7ZM206.28.79l.9,1.12a.59.59,0,0,0,.56.23h3.16L210.73,5h-4.48c-1.15,0-1.87-.32-2.17-1L202.69.79Zm4.15,5.27-.22,3.48-1.7,3h2.09l.85,4.33c.08.57.3.83.61.83h1l-.2,3.13h-2.23c-1.12,0-1.8-.66-2-2L207.7,14l-.13.23-.74,12h-3.35l.37-6a3.82,3.82,0,0,1-1.83.38h-2.59l.2-3.16h1.23c.49,0,.78-.08.88-.29l5.13-7.88h-6.05l.2-3.25Z"/><path class="cls-1" d="M207.06,26.47h-3.84l.36-5.82a4.75,4.75,0,0,1-1.56.23h-2.84l.22-3.64h1.46c.55,0,.65-.12.66-.15l4.91-7.54h-5.87l.23-3.73h9.9l-.24,3.79-1.53,2.7h1.88l.89,4.52c.06.43.19.64.37.64h1.26l-.22,3.61h-2.46c-.86,0-1.95-.38-2.27-2.18l-.63-3.4ZM203.74,26h2.87l.73-11.85.48-.86,1,5.53c.21,1.2.79,1.79,1.79,1.79h2l.16-2.65h-.75c-.32,0-.73-.18-.85-1l-.81-4.12h-2.31L210,9.47l.19-3.16h-8.92l-.17,2.75h6.24l-5.38,8.27c-.17.35-.7.39-1.08.39h-1l-.17,2.67H202a3.61,3.61,0,0,0,1.71-.34l.38-.21Zm21.61.14H210l.25-4h5.71l.85-13.86h-4.91l.24-3.84H217L217.26.2h4.3l-.26,4.27H226l-.24,3.84h-4.7l-.85,13.86h5.39Zm-14.88-.49H224.9l.18-3h-5.39l.91-14.83h4.71L225.49,5h-4.71L221,.68h-3.33L217.45,5h-4.9l-.18,2.87h4.9l-.91,14.83h-5.71ZM211,5.19h-4.7c-1.27,0-2.06-.38-2.4-1.15L202.32.54h4.07l1,1.21c0,.08.09.14.37.14h3.42ZM203.06,1l1.24,2.82c.25.57.89.85,1.95.85h4.25l.14-2.32h-2.9A.8.8,0,0,1,207,2l-.82-1Z"/></g></g></svg>