<svg xmlns="http://www.w3.org/2000/svg" viewBox="0 0 61.4 61.4"><defs><style>.cls-1{fill:#0071be;}.cls-2{fill:#fff;}</style></defs><g id="レイヤー_2" data-name="レイヤー 2"><g id="レイアウト"><path class="cls-1" d="M30.7,0A30.7,30.7,0,1,0,61.4,30.7,30.71,30.71,0,0,0,30.7,0Z"/><path class="cls-2" d="M45.06,43.68c-.38.43-3.86,5-9.42,3.09a30,30,0,0,1-13-9.18,29.91,29.91,0,0,1-6.84-14.34c-1-5.8,4.15-8.46,4.64-8.75s2.63-.8,3.6.63A30.25,30.25,0,0,1,26.89,22c.16,1.05-.95,2.22-2.21,2.46s-1.21.9-1.21.9.71,2.56,4.86,7.48,6.55,6.06,6.55,6.06.64.17,1.09-1,1.79-2.09,2.8-1.76A30,30,0,0,1,45,40C46.29,41.22,45.43,43.24,45.06,43.68Z"/></g></g></svg>