<svg xmlns="http://www.w3.org/2000/svg" viewBox="0 0 224.71 46.02"><defs><style>.cls-1{fill:#333;}</style></defs><g id="レイヤー_2" data-name="レイヤー 2"><g id="JP"><path class="cls-1" d="M20,19.39c.52,0,.62-.76.69-4.32a9,9,0,0,0,2.69,1.3c-.24,4.32-.91,5.81-3.12,5.81H18.19c-2.26,0-3-.87-3-4V7.94H11A27.71,27.71,0,0,1,10,13.13a29.56,29.56,0,0,1,3.67,3l-2.16,2.32A23.73,23.73,0,0,0,8.9,16.06a14.39,14.39,0,0,1-6.53,6.5,9,9,0,0,0-2.08-2.3,12.43,12.43,0,0,0,6.14-6.07c-1.32-.94-2.69-1.85-3.91-2.6l1.94-2c.91.53,1.92,1.13,2.93,1.78a27.12,27.12,0,0,0,.55-3.44H1.65V5.11H8.11c.05-1.61.05-3.24.05-4.92h3.07c0,1.66,0,3.31-.1,4.92h7V18.22c0,1,.07,1.17.55,1.17Z"/><path class="cls-1" d="M39.21,10.68c-.07.7-.14,1.39-.26,2.07h9.79a10.54,10.54,0,0,1-.09,1.15c-.41,4.7-.89,6.81-1.73,7.65a3.43,3.43,0,0,1-2.33,1,35.82,35.82,0,0,1-3.77,0,5.88,5.88,0,0,0-1-2.71c1.47.15,3,.17,3.58.17a1.58,1.58,0,0,0,1.05-.26c.48-.41.85-1.71,1.11-4.4H38.35c-1,3.1-3,5.67-7.46,7.32a8.1,8.1,0,0,0-1.78-2.44c5.76-1.92,6.7-5.45,7.06-9.51H29.73V8h9.32V5.47h2.8V8h9.34v2.64ZM34.85,4.42h-5V1.85h5V.14h2.8V1.85h5.57V.14h2.86V1.85h5.06V4.42H46.08v2H43.22v-2H37.65v2h-2.8Z"/><path class="cls-1" d="M67,1.37a39.83,39.83,0,0,1-2.5,4.85V22.49H61.61V10.25a28,28,0,0,1-2.38,2.54,20.56,20.56,0,0,0-1.66-3A24.74,24.74,0,0,0,64.13.43Zm9.53,18.22c1.15,0,1.34-.82,1.53-4.2a8.52,8.52,0,0,0,2.64,1.22c-.33,4.13-1.08,5.64-3.91,5.64h-4.1c-3,0-3.89-1-3.89-4.34V.74h2.88V9a40.36,40.36,0,0,0,6-4.2l2.11,2.5a57.85,57.85,0,0,1-8.16,4.63v6c0,1.42.17,1.66,1.32,1.66Z"/><path class="cls-1" d="M108.79,16.27H99.55v3.2c0,1.48-.31,2.23-1.49,2.64a14.78,14.78,0,0,1-4.65.45,13.41,13.41,0,0,0-1.18-2.78c1.54.07,3.31.07,3.79,0s.63-.1.63-.44V16.27H87.43V13.66h9.22V12.07H98a14.83,14.83,0,0,0,1.85-1.32H91.73V8.28H102.5l.63-.14,1.8,1.39a23.44,23.44,0,0,1-5.21,4.13h9.07ZM90.43,9.74H87.74V3.91H91a20.51,20.51,0,0,0-1.66-2.47L91.77.36A13.48,13.48,0,0,1,94,3.5l-.87.41h3.77a16.22,16.22,0,0,0-1.51-3L97.87,0a13.91,13.91,0,0,1,1.87,3.46l-1.15.45h3.62A19.88,19.88,0,0,0,104.28.26l3.1.94c-.65.91-1.37,1.87-2,2.71h3.19V9.74h-2.81V6.43H90.43Z"/><path class="cls-1" d="M123,14.19c-.26-.68-.72-1.71-1.2-2.72v11H119V13.2a21.13,21.13,0,0,1-2.26,5,17.43,17.43,0,0,0-1.34-2.88,24.06,24.06,0,0,0,3.43-8.12h-3V4.58H119V.12h2.78V4.58h2.74V7.22h-2.74v.7c.7.89,2.45,3.65,2.83,4.35Zm11.12-1.49A18,18,0,0,0,138.58,19a12.21,12.21,0,0,0-2.07,2.24,20.35,20.35,0,0,1-3.69-6.08v7.32H130v-7.1a17.73,17.73,0,0,1-4.92,6,14.63,14.63,0,0,0-1.92-2.18,15.8,15.8,0,0,0,5.54-6.55h-4V10.13H130V6.84h-2.24a13.74,13.74,0,0,1-1.41,2.9,15.4,15.4,0,0,0-2.23-1.41,16.56,16.56,0,0,0,2.25-7l2.62.45c-.15.87-.29,1.71-.48,2.52H130V.14h2.81V4.27h4.48V6.84h-4.48v3.29h5.08V12.7Z"/><path class="cls-1" d="M159.93,7c.51,7,2,12.56,3.73,12.56.5,0,.79-1.27.91-4.32a8.05,8.05,0,0,0,2.49,1.68c-.43,4.53-1.39,5.64-3.67,5.64-4.1,0-5.9-7.11-6.48-15.56H145V4.2h11.79c-.05-1.3-.08-2.64-.08-4h3.08c0,1.32,0,2.66,0,4h3.79a16.44,16.44,0,0,0-2.8-2.52L162.67.12a18,18,0,0,1,3.15,2.66L164.18,4.2h2.26V7Zm-7.58,10.78c1.46-.26,3-.55,4.46-.84l.22,2.55c-3.94.86-8.16,1.72-11.26,2.4L145,19l4.54-.72V12.48h-3.63V9.72h10.3v2.76h-3.84Z"/><path class="cls-1" d="M178.89,8.18a26.79,26.79,0,0,1-4,2.4,11.6,11.6,0,0,0-1.68-2.4,23.75,23.75,0,0,0,9.69-8h3A22,22,0,0,0,196,7.75a14.78,14.78,0,0,0-1.84,2.62,29.92,29.92,0,0,1-4-2.33v1.9H178.89Zm-4.24,3.75H194.5v2.64H183.74c-.69,1.42-1.49,2.9-2.21,4.25,2.31-.07,4.78-.17,7.23-.27a30.39,30.39,0,0,0-2.35-2.44l2.52-1.32A32.08,32.08,0,0,1,194.42,21l-2.66,1.61a14,14,0,0,0-1-1.49c-5.64.32-11.57.56-15.65.75L174.77,19l3.62-.12a43.65,43.65,0,0,0,1.82-4.34h-5.56Zm14.42-4.61a23.37,23.37,0,0,1-4.61-4.44,22.05,22.05,0,0,1-4.39,4.44Z"/><path class="cls-1" d="M211,16c-.51-.67-1.32-1.63-2.14-2.52v9H206V14.26a19.37,19.37,0,0,1-3,2.3,11.42,11.42,0,0,0-1.34-2.71,18,18,0,0,0,6.7-6.7h-5.79V4.56H206V.14h2.83V4.56h1.08l.51-.12,1.6,1a23.4,23.4,0,0,1-2.83,5.14c1.15.93,3,2.59,3.51,3.07Zm13.75,3v2.78H211.13V19.06h5.54V10.27h-4.56V7.51h4.56V.34h2.93V7.51h4.54v2.76H219.6v8.79Z"/><path class="cls-1" d="M1.43,36.4H3l1.92,5.76L6.81,36.4H8.34l1.39,8.26H8.21l-.89-5.22L5.57,44.66H4.18L2.44,39.44l-.91,5.22H0Z"/><path class="cls-1" d="M15.8,36.4h1.59l3.18,8.26H18.94L18.29,43H14.92l-.67,1.7H12.61Zm.81,2.19L15.5,41.43h2.21Z"/><path class="cls-1" d="M24.19,36.4h1.67a5.62,5.62,0,0,1,1.95.24,2,2,0,0,1,.93.81,2.47,2.47,0,0,1,.36,1.35,2.3,2.3,0,0,1-.39,1.36,2.45,2.45,0,0,1-1.18.83l2,3.67H27.77l-1.86-3.5h-.14v3.5H24.19Zm1.58,3.23h.49a1.92,1.92,0,0,0,1-.2.73.73,0,0,0,.28-.65.75.75,0,0,0-.14-.47.71.71,0,0,0-.37-.29,2.8,2.8,0,0,0-.86-.09h-.43Z"/><path class="cls-1" d="M33,36.4h1.58v5.34a2.81,2.81,0,0,0,.12,1,.92.92,0,0,0,.4.45,1.2,1.2,0,0,0,.67.18,1.29,1.29,0,0,0,.72-.2.91.91,0,0,0,.41-.48A3.49,3.49,0,0,0,37,41.54V36.4H38.6v4.92a6.65,6.65,0,0,1-.15,1.73,2.41,2.41,0,0,1-.53.94,2.5,2.5,0,0,1-.91.66,3,3,0,0,1-1.21.22,2.87,2.87,0,0,1-1.56-.42,2.34,2.34,0,0,1-1-1,5.44,5.44,0,0,1-.29-2.1Z"/><path class="cls-1" d="M42.13,36.4h1.69l1.54,3,1.54-3h1.66l-2.41,4.68v3.58H44.56V41.08Z"/><path class="cls-1" d="M56.05,36.19a4.1,4.1,0,0,1,3,1.27,4.41,4.41,0,0,1,0,6.16,4.31,4.31,0,0,1-6.11,0,4.26,4.26,0,0,1-1.23-3,4.31,4.31,0,0,1,4.31-4.34Zm0,1.54a2.6,2.6,0,0,0-1.93.8,2.76,2.76,0,0,0-.78,2,2.62,2.62,0,0,0,1,2.17,2.67,2.67,0,0,0,1.75.63A2.57,2.57,0,0,0,58,42.54a2.79,2.79,0,0,0,.79-2,2.75,2.75,0,0,0-.8-2A2.55,2.55,0,0,0,56,37.73Z"/><path class="cls-1" d="M68.45,37.52l-1.17,1A1.64,1.64,0,0,0,66,37.7a.75.75,0,0,0-.5.16.5.5,0,0,0-.2.38.69.69,0,0,0,.14.39,11.19,11.19,0,0,0,1.15,1.06c.6.5,1,.82,1.09,1a3.23,3.23,0,0,1,.68.92,2.25,2.25,0,0,1,.2,1,2.19,2.19,0,0,1-.7,1.67,2.53,2.53,0,0,1-1.83.67,2.73,2.73,0,0,1-1.54-.44,3.34,3.34,0,0,1-1.12-1.35l1.32-.8c.4.73.85,1.09,1.37,1.09a1,1,0,0,0,.68-.23.7.7,0,0,0,.28-.55,1,1,0,0,0-.21-.56,5.84,5.84,0,0,0-.92-.86,9,9,0,0,1-1.74-1.7,2.16,2.16,0,0,1-.39-1.19,1.93,1.93,0,0,1,.65-1.47,2.29,2.29,0,0,1,1.62-.62,2.53,2.53,0,0,1,1.17.29A4.33,4.33,0,0,1,68.45,37.52Z"/><path class="cls-1" d="M72.39,36.4H74v3.12h2.76V36.4h1.59v8.26H76.74V41H74v3.62H72.39Z"/><path class="cls-1" d="M82.4,36.4H84v8.26H82.4Z"/><path class="cls-1" d="M101.14,37.85l-1.1,1a3.4,3.4,0,0,0-2.52-1.19,2.77,2.77,0,0,0-2.81,2.81A3,3,0,0,0,95.07,42a2.58,2.58,0,0,0,1,1,2.88,2.88,0,0,0,1.46.37,3,3,0,0,0,1.25-.26,4.38,4.38,0,0,0,1.24-.93l1.07,1.11a5.81,5.81,0,0,1-1.73,1.24,4.71,4.71,0,0,1-1.86.35,4.3,4.3,0,0,1-3.15-1.22,4.23,4.23,0,0,1-1.23-3.13,4.31,4.31,0,0,1,.56-2.2,4.09,4.09,0,0,1,1.6-1.54,4.49,4.49,0,0,1,2.24-.59,4.82,4.82,0,0,1,2,.43A4.69,4.69,0,0,1,101.14,37.85Z"/><path class="cls-1" d="M104.81,36.4h1.6v3.12h2.76V36.4h1.58v8.26h-1.58V41h-2.76v3.62h-1.6Z"/><path class="cls-1" d="M115,36.4h4.51v1.54h-2.95v1.49h2.95v1.51h-2.95v2.18h2.95v1.54H115Z"/><path class="cls-1" d="M124,36.4h1.54l1.91,5.76,1.93-5.76h1.53l1.39,8.26H130.8l-.89-5.22-1.75,5.22h-1.39L125,39.44l-.9,5.22h-1.54Z"/><path class="cls-1" d="M135.76,36.4h1.56v8.26h-1.56Z"/><path class="cls-1" d="M149,37.85l-1.1,1a3.41,3.41,0,0,0-2.52-1.19,2.77,2.77,0,0,0-2.81,2.81,3,3,0,0,0,.36,1.47,2.58,2.58,0,0,0,1,1,2.86,2.86,0,0,0,1.46.37,3,3,0,0,0,1.25-.26,4.53,4.53,0,0,0,1.24-.93L149,43.28a5.81,5.81,0,0,1-1.73,1.24,4.71,4.71,0,0,1-1.86.35,4.3,4.3,0,0,1-3.15-1.22A4.23,4.23,0,0,1,141,40.52a4.31,4.31,0,0,1,.56-2.2,4,4,0,0,1,1.6-1.54,4.49,4.49,0,0,1,2.24-.59,4.82,4.82,0,0,1,2,.43A4.69,4.69,0,0,1,149,37.85Z"/><path class="cls-1" d="M155.18,36.4h1.59L160,44.66h-1.63l-.65-1.7H154.3l-.67,1.7H152Zm.81,2.19-1.11,2.84h2.21Z"/><path class="cls-1" d="M163.47,36.4H165v6.76h2.29v1.5h-3.86Z"/><path class="cls-1" d="M182.16,39.79l-1.28.7a2.3,2.3,0,0,0-.71-.53,2.33,2.33,0,0,0-.83-.14,1.94,1.94,0,0,0-1.39.51,1.76,1.76,0,0,0-.53,1.32,1.69,1.69,0,0,0,.51,1.27,1.85,1.85,0,0,0,1.35.49,2,2,0,0,0,1.6-.7l1.21.83a3.72,3.72,0,0,1-5.3.32,3.11,3.11,0,0,1-.91-2.23,3.22,3.22,0,0,1,.44-1.64,3.18,3.18,0,0,1,1.24-1.17,3.89,3.89,0,0,1,3.41-.07A3.22,3.22,0,0,1,182.16,39.79Z"/><path class="cls-1" d="M188.71,38.39a3.3,3.3,0,0,1,1.62.43A3.2,3.2,0,0,1,192,41.6a3.3,3.3,0,0,1-.43,1.62,3.13,3.13,0,0,1-1.17,1.17,3.19,3.19,0,0,1-1.64.43,3,3,0,0,1-2.24-.94,3.22,3.22,0,0,1,2.24-5.49Zm0,1.45a1.59,1.59,0,0,0-1.19.49,1.8,1.8,0,0,0-.47,1.27,1.78,1.78,0,0,0,.47,1.3,1.56,1.56,0,0,0,1.19.49,1.61,1.61,0,0,0,1.2-.5,1.81,1.81,0,0,0,.47-1.29,1.72,1.72,0,0,0-.47-1.27A1.57,1.57,0,0,0,188.73,39.84Z"/><path class="cls-1" d="M196.34,43.06a.84.84,0,0,1,.62.25.88.88,0,0,1,.26.63.89.89,0,0,1-.88.88.88.88,0,0,1-.63-.26.85.85,0,0,1-.26-.62.88.88,0,0,1,.26-.63A.87.87,0,0,1,196.34,43.06Z"/><path class="cls-1" d="M201.75,43.1l1.1.55L201.46,46l-.76-.36Z"/><path class="cls-1" d="M206.37,36.19h1.53v8.47h-1.53Z"/><path class="cls-1" d="M211.78,36.3h1.53v2.25h.91v1.32h-.91v4.79h-1.53V39.87H211V38.55h.79Z"/><path class="cls-1" d="M221.85,36.19h1.53v8.47h-1.53V44a3,3,0,0,1-.9.62,2.63,2.63,0,0,1-1,.19,2.74,2.74,0,0,1-2.05-.92,3.21,3.21,0,0,1-.86-2.28,3.26,3.26,0,0,1,.84-2.32,2.63,2.63,0,0,1,2-.91,2.56,2.56,0,0,1,1,.21,2.92,2.92,0,0,1,.89.62Zm-1.61,3.62a1.56,1.56,0,0,0-1.18.5,2,2,0,0,0,0,2.59,1.64,1.64,0,0,0,2.37,0,1.82,1.82,0,0,0,.48-1.32,1.77,1.77,0,0,0-.48-1.29A1.58,1.58,0,0,0,220.24,39.81Z"/></g></g></svg>