<svg xmlns="http://www.w3.org/2000/svg" viewBox="0 0 402 205.84"><defs><style>.cls-1{fill:#fff;}.cls-2{fill:#0071be;}</style></defs><g id="レイヤー_2" data-name="レイヤー 2"><g id="JP"><path class="cls-1" d="M52.94,74.69h2.72l3.4,10.24,3.43-10.24h2.72l2.47,14.68H65L63.4,80.1l-3.12,9.27H57.82L54.73,80.1l-1.61,9.27H50.4Z"/><path class="cls-1" d="M78.46,74.69H81.3l5.64,14.68H84l-1.15-3h-6l-1.19,3H72.8Zm1.44,3.89-2,5h3.92Z"/><path class="cls-1" d="M93.37,74.69h3a9.69,9.69,0,0,1,3.46.44,3.51,3.51,0,0,1,1.66,1.44,4.38,4.38,0,0,1,.63,2.38,4.07,4.07,0,0,1-.69,2.42,4.18,4.18,0,0,1-2.09,1.47l3.47,6.53h-3l-3.3-6.22h-.25v6.22h-2.8Zm2.8,5.74H97a3.48,3.48,0,0,0,1.84-.35,1.33,1.33,0,0,0,.5-1.16,1.41,1.41,0,0,0-.25-.84,1.36,1.36,0,0,0-.67-.51,5.22,5.22,0,0,0-1.53-.15h-.76Z"/><path class="cls-1" d="M109,74.69h2.8v9.49a4.76,4.76,0,0,0,.22,1.74,1.73,1.73,0,0,0,.71.81,2.21,2.21,0,0,0,1.19.3,2.3,2.3,0,0,0,1.27-.34,1.75,1.75,0,0,0,.74-.86,6.64,6.64,0,0,0,.2-2V74.69H119v8.75a13,13,0,0,1-.25,3.07,4.74,4.74,0,0,1-2.58,2.84,5.4,5.4,0,0,1-2.13.39,5.15,5.15,0,0,1-2.78-.74,4.28,4.28,0,0,1-1.69-1.83,9.71,9.71,0,0,1-.51-3.73Z"/><path class="cls-1" d="M125.24,74.69h3L131,80l2.72-5.28h3L132.37,83v6.36h-2.82V83Z"/><path class="cls-1" d="M150,74.32a7.3,7.3,0,0,1,5.36,2.26,7.5,7.5,0,0,1,2.24,5.49,7.42,7.42,0,0,1-2.21,5.44,7.65,7.65,0,0,1-10.86-.06,7.85,7.85,0,0,1-1.16-9.3A7.73,7.73,0,0,1,150,74.32Zm0,2.74a4.61,4.61,0,0,0-3.42,1.41,4.93,4.93,0,0,0-1.39,3.6,4.66,4.66,0,0,0,1.75,3.85A4.76,4.76,0,0,0,150,87a4.57,4.57,0,0,0,3.39-1.43,5.17,5.17,0,0,0,0-7.09A4.59,4.59,0,0,0,149.93,77.06Z"/><path class="cls-1" d="M172,76.69l-2.07,1.82A2.92,2.92,0,0,0,167.69,77a1.41,1.41,0,0,0-.9.29.88.88,0,0,0-.35.66,1.17,1.17,0,0,0,.25.7,19,19,0,0,0,2.05,1.89c1.07.89,1.71,1.45,1.94,1.68a5.76,5.76,0,0,1,1.2,1.64,4.11,4.11,0,0,1,.36,1.72,3.94,3.94,0,0,1-1.25,3,4.57,4.57,0,0,1-3.25,1.18A4.89,4.89,0,0,1,165,89a6.15,6.15,0,0,1-2-2.42l2.35-1.41c.71,1.29,1.52,1.94,2.44,1.94a1.8,1.8,0,0,0,1.21-.42,1.26,1.26,0,0,0,.49-1,1.7,1.7,0,0,0-.37-1,11.21,11.21,0,0,0-1.63-1.53,16.37,16.37,0,0,1-3.1-3,3.77,3.77,0,0,1-.7-2.12,3.46,3.46,0,0,1,1.16-2.61,4.06,4.06,0,0,1,2.88-1.1,4.54,4.54,0,0,1,2.09.51A7.62,7.62,0,0,1,172,76.69Z"/><path class="cls-1" d="M179,74.69h2.83v5.54h4.9V74.69h2.82V89.37h-2.82V82.93h-4.9v6.44H179Z"/><path class="cls-1" d="M196.77,74.69h2.77V89.37h-2.77Z"/><path class="cls-1" d="M230.06,77.27l-2,1.86a6,6,0,0,0-4.48-2.1,4.9,4.9,0,0,0-5,5,5.31,5.31,0,0,0,.63,2.61,4.62,4.62,0,0,0,1.81,1.78,5.16,5.16,0,0,0,2.59.65,5.37,5.37,0,0,0,2.22-.45A8.23,8.23,0,0,0,228.1,85l1.9,2a10.49,10.49,0,0,1-3.07,2.2,8.42,8.42,0,0,1-3.31.62,7.64,7.64,0,0,1-5.6-2.17,8.17,8.17,0,0,1-1.18-9.47,7.35,7.35,0,0,1,2.84-2.74,8,8,0,0,1,4-1,8.49,8.49,0,0,1,6.4,3Z"/><path class="cls-1" d="M236.58,74.69h2.83v5.54h4.9V74.69h2.82V89.37h-2.82V82.93h-4.9v6.44h-2.83Z"/><path class="cls-1" d="M254.58,74.69h8v2.74h-5.24v2.65h5.24v2.68h-5.24v3.86h5.24v2.75h-8Z"/><path class="cls-1" d="M270.7,74.69h2.72l3.4,10.24,3.44-10.24H283l2.47,14.68h-2.7l-1.58-9.27L278,89.37h-2.46l-3.09-9.27-1.61,9.27h-2.72Z"/><path class="cls-1" d="M291.55,74.69h2.77V89.37h-2.77Z"/><path class="cls-1" d="M315,77.27l-1.95,1.86A6.05,6.05,0,0,0,308.6,77a4.9,4.9,0,0,0-5,5,5.2,5.2,0,0,0,.64,2.61,4.67,4.67,0,0,0,1.8,1.78,5.2,5.2,0,0,0,2.6.65,5.37,5.37,0,0,0,2.22-.45A8.23,8.23,0,0,0,313.08,85l1.89,2a10.24,10.24,0,0,1-3.07,2.2,8.34,8.34,0,0,1-3.3.62,7.62,7.62,0,0,1-5.6-2.17A7.54,7.54,0,0,1,300.82,82a7.64,7.64,0,0,1,1-3.9,7.42,7.42,0,0,1,2.84-2.74,8.08,8.08,0,0,1,4-1,8.45,8.45,0,0,1,6.39,3Z"/><path class="cls-1" d="M326,74.69h2.83l5.65,14.68h-2.91l-1.15-3h-6l-1.2,3h-2.9Zm1.43,3.89-2,5h3.93Z"/><path class="cls-1" d="M340.76,74.69h2.79v12h4.07v2.67h-6.86Z"/><path class="cls-2" d="M210.78,204.43V140.9h0c-3.2-.11-6.46-.17-9.75-.17-51.37,0-93,14.31-93,32s41.65,32,93,32q5,0,9.76-.18Z"/><path class="cls-2" d="M201,205.84c-25,0-48.47-3.35-66.16-9.43-18.09-6.21-28-14.64-28-23.72s10-17.51,28.05-23.73c17.69-6.08,41.19-9.42,66.16-9.42,3.27,0,6.56.05,9.79.17h.09l1.06.11,0,1.07v63.87l-.54.87-.63,0C207.57,205.78,204.27,205.84,201,205.84Zm0-63.92c-24.72,0-47.94,3.3-65.39,9.3-16.8,5.77-26.44,13.6-26.44,21.47s9.64,15.7,26.44,21.47c17.45,6,40.67,9.3,65.39,9.3,2.87,0,5.75-.05,8.59-.14V142.05C206.75,142,203.86,141.92,201,141.92Z"/><path class="cls-1" d="M210.76,204.47C257.54,202.8,294,189.21,294,172.69s-36.48-30.11-83.27-31.79h0v63.53Z"/><path class="cls-1" d="M139.19,194.43V150.92h16l7.13,27.13,7.14-27.13h16v43.51H173.57v-13.3l.17-6.77.67-7.85h-.11l-7.36,27.92h-9.21l-7.36-27.92h-.12l.57,6.4.28,6.77v14.75Z"/><path class="cls-1" d="M210.76,194.43h-6.69V178.59L189,150.92h14.83l7,14.74"/><path class="cls-2" d="M208.56,205.75l1-1.66V140.9h1.13l.07-1.19c22.87.82,44,4.51,59.56,10.4,16,6.08,24.86,14.09,24.86,22.58s-8.83,16.5-24.85,22.57c-15.55,5.89-36.7,9.59-59.56,10.41ZM212,142.14v61.1c45.44-1.85,80.86-15.19,80.86-30.55S257.42,144,212,142.14Z"/><path class="cls-2" d="M257.79,167.54c-.4-4.54-3-7.13-7.19-7.13-4.67,0-7.48,4.29-7.48,12.68,0,6.11,1.24,11.85,8,11.85,4.27,0,6.29-3.2,6.8-7.37h12.75c-1.18,11.24-8.65,18-19.32,18-13.37,0-21.46-8.82-21.46-23s8.87-22.84,20.16-22.84c12.36,0,19.27,6.59,20.34,17.77Z"/><path class="cls-2" d="M210.81,165.66l7-14.74h14.61l-15,27.43v16.08h-6.57"/><path class="cls-1" d="M19,7,21.05.79h7.76L26.79,7H43.17l-2,31.89c-.06.92.32,1.38,1.13,1.38h4l-.39,6.38H38.18c-3.37,0-4.89-1.89-4.66-5.56L35.2,13.75H24.59l-5,15.2,2,2a5,5,0,0,0,3.87,1.74h3.78l-.39,6.38H21.5a3.74,3.74,0,0,1-3-1.43L17.23,36.3,15.4,42c-1,3.22-2.54,4.85-4.58,4.85H.46l.39-6.38H7c.62,0,1.11-.56,1.54-1.73L11.45,30l-8.17-9H12l1.78,1.89,3-9.08H3.11L3.52,7Z"/><path class="cls-1" d="M10.82,47.29H0l.45-7.24H7c.4,0,.78-.49,1.14-1.45L11,30.08,2.31,20.51h9.88l1.4,1.5,2.6-7.83H2.65l.47-7.6H18.67L20.74.36H29.4l-2,6.22H43.63l-2,32.35a1.11,1.11,0,0,0,.17.75.73.73,0,0,0,.54.17h4.44l-.44,7.24H38.18a5.07,5.07,0,0,1-3.85-1.38,6,6,0,0,1-1.24-4.64l1.65-26.89H24.9L20.11,28.84l1.79,1.85a4.52,4.52,0,0,0,3.56,1.61H29.7l-.45,7.24H21.5A4.15,4.15,0,0,1,18.14,38l-.73-.81-1.6,5C14.73,45.56,13.05,47.29,10.82,47.29Zm-9.9-.86h9.9c1.81,0,3.22-1.53,4.17-4.55l2.06-6.42,1.74,1.93a3.31,3.31,0,0,0,2.71,1.29h6.94l.34-5.52H25.46a5.4,5.4,0,0,1-4.19-1.88l-2.14-2.22,5.15-15.74H35.66L34,41.12a5.26,5.26,0,0,0,1,4,4.3,4.3,0,0,0,3.23,1.11h7.35l.34-5.52H42.34a1.54,1.54,0,0,1-1.17-.44,1.79,1.79,0,0,1-.39-1.39L42.71,7.44H26.2l2-6.22H21.36L19.29,7.44H3.93l-.36,5.88H17.38L14,23.65l-2.14-2.28H4.25l7.68,8.5-3,9c-.32.88-.87,2-2,2H1.26Z"/><path class="cls-1" d="M98.81,9.77h-5.2L93.47,12H85.72l.13-2.19H66.31L66.18,12H58.63l.13-2.19H52.94l.38-6.18h5.82L59.3,1h7.55l-.16,2.6H86.23L86.4,1h7.75L94,3.59h5.2ZM79.39,11.2l-.22,3.57H97.69l-.36,5.76H66.52L65.9,24H96.36L95.3,41.1c-.22,3.67-2.48,5.56-6.72,5.56H71.24l.38-6.18H86.57c1,0,1.6-.4,1.65-1.22l.56-9.13h-24L62.7,41.86c-.6,3.16-1.82,4.8-3.66,4.8h-8l.36-5.77h3.41c.77,0,1.29-1,1.52-3l3.16-17.35H53.1l.35-5.76H71.57l.22-3.57Z"/><path class="cls-1" d="M88.58,47.09H70.78l.43-7H86.57c1.17,0,1.21-.59,1.22-.82l.54-8.67H65.16l-2,11.38c-.65,3.42-2,5.15-4.09,5.15H50.62L51,40.46h3.82c.51,0,.9-1,1.09-2.63L59,21H52.64l.41-6.62H71.16l.22-3.57h8.47l-.22,3.57H98.15L97.74,21H66.88l-.47,2.56H96.82l-1.09,17.6C95.49,45,93,47.09,88.58,47.09Zm-16.89-.86H88.58c4,0,6.08-1.69,6.29-5.16l1-16.69H65.38l.78-4.28H96.93l.3-4.9H78.71l.22-3.57H72.19L72,15.2H53.86l-.3,4.9H60L56.79,38c-.09.81-.37,3.36-1.94,3.36h-3l-.3,4.91H59c1.59,0,2.68-1.5,3.24-4.45L64.44,29.7h24.8l-.59,9.59c0,.49-.29,1.62-2.08,1.62H72ZM93.88,12.39H85.26l.14-2.19H66.72l-.14,2.19H58.17l.13-2.19H52.49l.43-7h5.82L58.9.56h8.41l-.16,2.6H85.83L86,.56h8.62l-.16,2.6h5.2l-.43,7H94Zm-7.7-.86h6.89l.14-2.19h5.2L98.74,4H93.53l.16-2.6H86.8L86.64,4H66.24l.16-2.6H59.71L59.55,4H53.73L53.4,9.34h5.82l-.14,2.19h6.69l.14-2.19h20.4Z"/><path class="cls-1" d="M120.1.79l-5.6,13.77-2,32.1h-7l1.65-26.89h-5l.43-7h4.19c.71,0,1.31-.67,1.8-2l3.94-10Zm10,.81-1.17,18.93h8.17c.91,0,1.43-1,1.56-3l.76-12.39h7.19l-.93,15.15a7.26,7.26,0,0,1-2.08,4.8,5.81,5.81,0,0,1-4.28,1.58H128.5l-.76,12.4c0,.81.39,1.17,1.3,1.17h17.35L146,46.66H124.26c-2.8,0-4.1-1.28-4-3.78L122.85,1.6Z"/><path class="cls-1" d="M146.4,47.09H124.26a4.63,4.63,0,0,1-3.49-1.18,3.93,3.93,0,0,1-.89-3l2.57-41.69h8.06L129.34,20.1h7.71c.8,0,1-1.39,1.13-2.55L139,4.74H147l-1,15.62a7.69,7.69,0,0,1-2.2,5.07,6.21,6.21,0,0,1-4.59,1.71H128.91l-.74,12a.64.64,0,0,0,.12.52,1.05,1.05,0,0,0,.75.2h17.81ZM123.26,2l-2.52,40.88a3.15,3.15,0,0,0,.66,2.41,3.83,3.83,0,0,0,2.86.91h21.33l.34-5.52H129a1.79,1.79,0,0,1-1.38-.47,1.5,1.5,0,0,1-.35-1.16l.79-12.8h11.17a5.39,5.39,0,0,0,4-1.46,6.77,6.77,0,0,0,1.95-4.52l.91-14.69h-6.34l-.73,12c-.14,2.23-.81,3.36-2,3.36h-8.63L129.59,2ZM112.93,47.09h-7.85l1.66-26.89h-5l.48-7.85h4.59c.63,0,1.11-.93,1.4-1.71l4-10.28h8.49l-5.81,14.3ZM106,46.23h6.12l2-31.76,5.38-13.25h-6.62L109,11c-.55,1.49-1.29,2.26-2.2,2.26H103l-.38,6.13h5Z"/><path class="cls-1" d="M177.42,1l.23,2.81a1.41,1.41,0,0,0,1.5,1.38h2l-.31,5h-5.76c-2.45,0-3.93-.92-4.42-2.81L169.41,1ZM161.86,1l.44,2.81a1.39,1.39,0,0,0,1.49,1.38h3.57l-.3,5h-7.35c-2.45,0-3.92-.92-4.42-2.81L153.9,1Zm33,7.2c-.49,1.32-1.65,2-3.49,2h-8.16l.31-5h3.37a1,1,0,0,0,1-.57L189.15,1h8Zm2.06,12.14h-7.19l.18-3H158.86l-.19,3h-7.19l.55-9H197.5Zm-6.21.61-.42,6.79-4.75,2.6h10.77L196,36.5H179.21l-.43,7c-.14,2.35-1.85,3.58-5,3.58H156.42l.35-5.77h13c.92,0,1.4-.31,1.44-1l.23-3.78H150.48l.38-6.17h23.58l7-3.62H154.3l.36-5.77Z"/><path class="cls-1" d="M173.76,47.5H156l.41-6.63h13.36c1,0,1-.37,1-.62l.21-3.32H150l.43-7h23.87l5.31-2.76h-25.8l.4-6.38H151l.61-9.84H198l-.6,9.84h-6.18L190.73,28l-3.49,1.91h9.54l-.43,7H179.62l-.41,6.59C179.1,45.33,178.06,47.5,173.76,47.5Zm-16.89-.87h16.89c2.92,0,4.46-1.06,4.59-3.16l.46-7.4h16.73l.33-5.31H185.56l-.21-.81,4.55-2.49.37-6.09H155.06l-.3,4.91H181.4l.19.81-7.05,3.67H151.27l-.33,5.31h20.92l-.26,4.24c0,.65-.4,1.42-1.87,1.42H157.18Zm2.23-26.12h30.21l.16-2.71H159.26Zm31.11-.61h6.33l.5-8.12h-44.6l-.5,8.12h6.33l.18-3h31.94Zm1.18-9.29h-8.62l.36-5.87h3.78c.44,0,.53-.13.6-.3L188.85.56h8.9l-2.46,7.78C194.73,9.84,193.42,10.61,191.39,10.61Zm-7.7-.86h7.7c1.65,0,2.66-.56,3.09-1.7l2.1-6.63h-7.12l-1.14,3.33a1.38,1.38,0,0,1-1.41.86h-3Zm-2.45.86h-6.17c-2.67,0-4.29-1.06-4.84-3.13L168.88.56h8.93l.27,3.2c.11.69.42,1,1.07,1h2.45ZM169.93,1.42l1.14,5.87c.43,1.64,1.74,2.46,4,2.46h5.36l.25-4.14h-1.53a1.82,1.82,0,0,1-1.92-1.74L177,1.42Zm-2.47,9.19h-7.75c-2.67,0-4.29-1.06-4.84-3.13L153.36.56h8.86l.5,3.17c.12.72.43,1,1.07,1h4Zm-13-9.19,1.28,5.86c.44,1.65,1.74,2.47,4,2.47h6.94l.26-4.14h-3.12a1.82,1.82,0,0,1-1.92-1.74l-.38-2.45Z"/><path class="cls-1" d="M216.54,20.44l.33,17.26c.07,3.12,1.06,4.67,2.93,4.67h2.32l-.3,4.89h5.09c1.82,0,3-1.61,3.57-4.73l2.82-17.19h-6.08L225,39.47a3.59,3.59,0,0,1-1.51,2.18l.29-4.73h-1.4c-.58,0-.41-.52-.45-1.61L222,14.58h-6.12l.16-2.65h6.7l.36-5.87h-6.7l.34-5.5h-6.08l-.34,5.5h-6.91l-.36,5.87H210l-.16,2.65h-6.33l-2.71,23.74c-.14,1.35-.6,2-1.32,2h-.37l-.35,5.71H201a4.6,4.6,0,0,0,3.25-1.4,6.13,6.13,0,0,0,1.53-3.79l2.35-20.43h1.26l-1.58,27h6.08l1.67-27ZM234,1.6l-1.1,3.63h2.28l.28-4.47h6.49l-.27,4.47h8.52l-.39,6.29h-8.52L241,16.4h9.35l-.4,6.49h-9.35l-1.52,24.58h-6.49l1.51-24.58H222.49l.4-6.49h11.58l.31-4.88h-3.85a4.24,4.24,0,0,1-4.21,2.65H223l.37-6.08h1.66c.37,0,.7-.36,1-1.09l1.63-5.4Zm13.35,23.74.49,14.8c.14,1.14.57,1.66,1.35,1.66l-.34,5.46h-3.48c-2.33,0-3.59-1.56-3.76-4.68l-.34-17.24Z"/><path class="cls-1" d="M239.46,47.9H232.1l1.25-20.18L230.9,42.6c-.6,3.38-1.94,5.09-4,5.09h-5.55l.3-4.88H219.8c-1.48,0-3.27-.89-3.36-5.1l-.32-16.85h-.19l-1.66,27h-6.94l1.58-27h-.43l-2.3,20.05a6.54,6.54,0,0,1-1.65,4A5,5,0,0,1,201,46.49h-2.7l.41-6.57h.77c.6,0,.81-.89.89-1.64l2.75-24.13h6.31l.11-1.79h-6.9L203,5.63h6.91l.34-5.5h6.94l-.34,5.5h6.7l-.13,2h1.62c.1,0,.34-.18.61-.83l1.71-5.66h7.18l-1.1,3.63h1.3L235,.33h7.36l-.28,4.47h8.52L250.19,12h-8.52l-.24,4h9.35l-.46,7.36H241l-.09,1.58h6.86l.51,15.22c.15,1.24.65,1.24.92,1.24h.46l-.39,6.32h-3.89c-1.78,0-4-.88-4.19-5.08l-.33-16.89ZM233,47h5.63l1.51-24.58h9.35l.35-5.63h-9.35l.35-5.74h8.52l.34-5.43H241.2l.27-4.46h-5.63l-.27,4.46H232.3L233.4,2H228l-1.54,5.09c-.16.38-.58,1.4-1.42,1.4h-1.25l-.32,5.22h3.23a3.82,3.82,0,0,0,3.82-2.4l.11-.25h4.58l-.35,5.74H223.29L223,22.46h11.58Zm-24.78,0h5.22l1.66-27L217,20l.34,17.68c.09,4.25,1.91,4.25,2.5,4.25h2.78l-.3,4.89h4.63c1.57,0,2.62-1.47,3.14-4.37l2.74-16.69h-5.2l-2.16,13.76A4.08,4.08,0,0,1,223.71,42l-.7.42.31-5.09h-.94a.84.84,0,0,1-.62-.22c-.26-.27-.26-.65-.25-1.18,0-.19,0-.39,0-.63L221.58,15h-6.15l.22-3.51h6.69l.31-5H216l.34-5.5h-5.21l-.34,5.5h-6.91l-.31,5h6.91L210.21,15h-6.35l-2.67,23.36c-.19,2-1,2.39-1.7,2.41l-.3,4.85H201a4.23,4.23,0,0,0,3-1.28,5.8,5.8,0,0,0,1.4-3.53L207.71,20h2.11Zm33.45-21.27.33,16.8c.16,2.86,1.25,4.26,3.33,4.26h3.08l.29-4.65c-.75-.18-1.19-.85-1.33-2l-.48-14.42ZM222.38,36.49h1.86L224,40.62a3.1,3.1,0,0,0,.6-1.25l2.27-14.46h6.67l.1-1.58H222.41l0,12c0,.23,0,.45,0,.64S222.37,36.37,222.38,36.49ZM222,14.15h.43v2.6l.05-.78h11.58l.25-4H231.2a4.62,4.62,0,0,1-4.48,2.65h-4.15l.14-2.24h-6.25l-.11,1.79Z"/><path class="cls-1" d="M301.53,2l-.44,7.15c-.16,2.55-1.66,3.82-4.42,3.82h-6.89l2.69,25.92c.13,1.23.56,1.79,1.32,1.79h5.56L299,46.86h-9.39c-2.55,0-3.87-1.73-4.06-5.2L282.84,13H254.78l.39-6.38h27.1L281.68.43h6.78l.64,6.17h4c.62,0,1-.4,1.05-1.22L294.34,2ZM280.85,23.75h-8.36l-.91,14.74h10.76L282,44.67H253.85l.38-6.18h10.15l.91-14.74h-9l.38-6.18h24.54Z"/><path class="cls-1" d="M299.38,47.29h-9.8c-2.77,0-4.28-1.89-4.49-5.61l-2.64-28.27H254.32l.45-7.24h27L281.2,0h7.65l.64,6.17h3.59c.17,0,.57,0,.62-.82l.23-3.77H302l-.47,7.6c-.17,2.77-1.85,4.23-4.85,4.23h-6.41l2.64,25.45c.15,1.4.65,1.4.89,1.4h6ZM255.24,12.55h28L286,41.62c.24,4.31,2.19,4.81,3.63,4.81h9l.32-5.31h-5.1c-1,0-1.59-.73-1.75-2.17l-2.74-26.4h7.37c2.54,0,3.85-1.12,4-3.42l.41-6.69h-6.33l-.18,3c-.06,1-.62,1.62-1.48,1.62h-4.36L288.08.86h-5.93L282.74,7H255.58ZM282.37,45.1h-29l.44-7H264l.85-13.88h-9l.44-7h25.4l-.43,7h-8.37L272,38.06H282.8Zm-28.06-.86h27.25l.33-5.32H271.12l1-15.6h8.37l.33-5.32H257.1l-.33,5.32h9l-1,15.6H254.63Z"/><path class="cls-1" d="M342.77,1.81l3,6.07c.47,1.43,1,2.09,1.71,2.09h4.38l-.36,6h-7.61a3.4,3.4,0,0,1-3-1.84l-3.84-6.53h-16l-4.63,6.53a4,4,0,0,1-3.23,1.84h-7.6l.37-6h4.38c.62,0,1.32-.66,2-2.09l3.69-6.07Zm6.07,21.53H307.15l.37-6H349.2ZM350,33.09H321.86l-6,7.39h23.93c.92,0,1.4-.3,1.44-1l.2-3.16h7l-.35,5.56a4.1,4.1,0,0,1-1.7,2.76,6.91,6.91,0,0,1-4.54,1.63H305.54l.25-4.18a3.07,3.07,0,0,1,1.13-1.69L313,33.09H305l.37-6h45.05Z"/><path class="cls-1" d="M341.86,46.68H305.08l.28-4.64a3.36,3.36,0,0,1,1.26-2l5.49-6.55h-7.6l.42-6.84h45.92l-.42,6.84H322.06l-5.27,6.53h23c1,0,1-.37,1-.61l.22-3.57h7.86l-.38,6a4.5,4.5,0,0,1-1.85,3A7.29,7.29,0,0,1,341.86,46.68ZM306,45.82h35.87a6.51,6.51,0,0,0,4.27-1.54,3.76,3.76,0,0,0,1.55-2.45l.31-5.1h-6.13l-.17,2.76c0,.65-.39,1.42-1.87,1.42H315l6.66-8.26h28l.31-5.1H305.74l-.31,5.1H314l-6.7,8c-.9.85-1,1.28-1,1.43Zm43.25-22H306.69l.42-6.83h42.55Zm-41.63-.86h40.82l.32-5.11H307.92Zm44.28-6.54h-8a3.83,3.83,0,0,1-3.36-2L336.81,8H321.3l-4.5,6.35a4.42,4.42,0,0,1-3.58,2h-8.06l.42-6.83h4.79c.17,0,.79-.13,1.63-1.85l3.84-6.31H343l3.11,6.31c.41,1.21.87,1.85,1.33,1.85h4.84Zm-31-9.23H337.3l4,6.75a3,3,0,0,0,2.62,1.62h7.2l.32-5.11h-3.93c-.9,0-1.59-.78-2.12-2.38L342.5,2.24H316.32L312.76,8.1c-.74,1.52-1.55,2.3-2.39,2.3h-4l-.31,5.11h7.14a3.6,3.6,0,0,0,2.88-1.67Z"/><path class="cls-1" d="M401.17,14.36h-8.36l-1.57,25.51h9.59L400.45,46H373.92l.38-6.17h10.15L386,14.36H377.3l.36-6h8.73l.47-7.6h6.78l-.47,7.6h8.37Zm-34.25-13,1.61,2c.19.31.49.41,1,.41h5.61l-.31,5h-8c-2,0-3.33-.56-3.87-1.79L360.54,1.4Zm7.38,9.39L373.92,17l-3,5.36h3.72l1.52,7.7c.14,1,.52,1.48,1.08,1.48H379l-.35,5.57h-4q-3,0-3.61-3.53l-1.61-8.67-.23.41-1.31,21.38h-6L362.59,36a6.76,6.76,0,0,1-3.25.67h-4.6l.35-5.61h2.19c.87,0,1.39-.16,1.57-.51l9.13-14H357.21l.36-5.76Z"/><path class="cls-1" d="M368.31,47.09h-6.83l.64-10.36a8.4,8.4,0,0,1-2.78.41h-5l.4-6.48h2.59c1,0,1.15-.2,1.18-.26L367.18,17H356.75l.41-6.62h17.6l-.42,6.73-2.71,4.8H375l1.58,8.05c.11.76.33,1.13.66,1.13h2.24l-.39,6.43h-4.39c-1.52,0-3.46-.68-4-3.88l-1.12-6.06Zm-5.91-.86h5.1l1.3-21.08.86-1.53,1.83,9.85c.38,2.13,1.42,3.16,3.18,3.16h3.58l.29-4.7h-1.33c-.57,0-1.3-.32-1.51-1.85l-1.44-7.33h-4.11l3.35-5.91.34-5.62H358l-.3,4.9h11.1l-9.56,14.7c-.31.63-1.25.71-1.93.71H355.5l-.3,4.75h4.14a6.4,6.4,0,0,0,3.05-.61l.68-.38Zm38.45.25H373.46l.43-7H384l1.52-24.65h-8.72L377.26,8H386l.47-7.6h7.65L393.63,8H402l-.42,6.83h-8.37l-1.52,24.65h9.6Zm-26.48-.87H400l.33-5.31h-9.59l1.62-26.37h8.37l.31-5.11h-8.36l.46-7.6h-5.92l-.47,7.6h-8.72l-.32,5.11h8.73L384.85,40.3H374.7Zm.87-36.38h-8.37c-2.26,0-3.66-.67-4.26-2L359.88,1h7.25l1.74,2.15c.08.13.15.25.66.25h6.07Zm-14-7.4,2.2,5c.45,1,1.58,1.53,3.47,1.53h7.56l.25-4.14h-5.15a1.46,1.46,0,0,1-1.37-.62l-1.44-1.78Z"/></g></g></svg>