<svg xmlns="http://www.w3.org/2000/svg" viewBox="0 0 13.38 202.9"><defs><style>.cls-1{fill:#333;}.cls-2{fill:#e6e6e6;}</style></defs><g id="レイヤー_2" data-name="レイヤー 2"><g id="JP"><path class="cls-1" d="M13.19,0V6.36H11.46V2.07H9.06V5.72H7.33V2.07H4.55V6.51H2.82V0Z"/><path class="cls-1" d="M2.7,14.58c.42-2.22,2.38-3.69,5.34-3.69,3.38,0,5.34,1.89,5.34,4.64s-2,4.63-5.34,4.63c-2.83,0-4.73-1.34-5.27-3.4a2.67,2.67,0,0,0-1.1,2.35,4,4,0,0,0,.16,1.14l-1.52.38A4.46,4.46,0,0,1,0,18.88,4.51,4.51,0,0,1,2.7,14.58ZM8,18.05c2.23,0,3.56-1,3.56-2.52S10.27,13,8,13s-3.73,1-3.73,2.52S5.71,18.05,8,18.05Z"/><path class="cls-1" d="M7.48,24.93h5.71V27H7.3c-2.16,0-2.89.75-2.89,2s.73,2,2.89,2h5.89v2H7.48C4,33,2.62,31.5,2.62,29S4,24.93,7.48,24.93Z"/><path class="cls-1" d="M13.19,38.26v2.07H2.82V38.26Z"/><path class="cls-1" d="M13.19,45.68v3.41c0,2.29-.81,4.06-3.26,4.06s-3.43-1.78-3.43-4V47.75H2.82V45.68ZM8.14,49c0,1.43.6,2.12,1.79,2.12s1.61-.76,1.61-2.19V47.75H8.14Z"/><path class="cls-1" d="M13.19,57.82v2.3L8.33,61.88c-.64.23-1.33.42-2,.63v.07c.65.23,1.34.41,2,.63l4.86,1.72v2.3H2.82V65.34H7.14c1,0,2.43.16,3.41.27v-.07L8.11,64.7,3.75,63.1V61.91L8.11,60.3l2.44-.83v0c-1,.09-2.43.26-3.41.26H2.82V57.82Z"/><path class="cls-1" d="M13.19,72.57v6.36H11.46V74.65H9.06v3.64H7.33V74.65H4.55v4.44H2.82V72.57Z"/><path class="cls-1" d="M13.19,84V86.1l-5.53,3-2.24,1v.07C6.5,90.12,7.87,90,9.05,90h4.14v2H2.82v-2.1l5.54-3,2.23-1v-.07C9.47,85.79,8.17,86,7,86H2.82V84Z"/><path class="cls-1" d="M11.46,99.33V96.42h1.73v7.92H11.46V101.4H2.82V99.33Z"/><rect class="cls-2" x="3.17" y="125.9" width="1" height="77"/></g></g></svg>