<svg xmlns="http://www.w3.org/2000/svg" viewBox="0 0 10.76 991.18"><defs><style>.cls-1{fill:#333;}.cls-2{fill:#e6e6e6;}</style></defs><g id="レイヤー_2" data-name="レイヤー 2"><g id="JP"><path class="cls-1" d="M10.58,0V6.39H8.84V2.07H6.14V5.76H4.4V2.07H.2V0Z"/><path class="cls-1" d="M10.58,11v2.07H1.93v4.22H.2V11Z"/><path class="cls-1" d="M5.42,21.36c3.38,0,5.34,1.89,5.34,4.64s-2,4.64-5.34,4.64S0,28.75,0,26,2.06,21.36,5.42,21.36Zm0,7.16C7.65,28.52,9,27.54,9,26s-1.33-2.52-3.56-2.52-3.63,1-3.63,2.52S3.21,28.52,5.42,28.52Z"/><path class="cls-1" d="M10.58,34.45v2.1l-5.07.83-3.31.48v0c1.12.21,2.23.44,3.31.66l5.07,1.21v1.77l-5.07,1.2L2.2,43.4v.07l3.31.47,5.07.82v2L.2,44.8V42.23l5.12-1.17c.82-.16,1.61-.32,2.41-.44v-.06c-.8-.14-1.59-.28-2.41-.45L.2,39V36.44Z"/><rect class="cls-2" x="0.55" y="70.18" width="1" height="921"/></g></g></svg>