<svg xmlns="http://www.w3.org/2000/svg" viewBox="0 0 10.76 304.9"><defs><style>.cls-1{fill:#333;}.cls-2{fill:#e6e6e6;}</style></defs><g id="レイヤー_2" data-name="レイヤー 2"><g id="JP"><path class="cls-1" d="M10.58,0V2.07H.2V0Z"/><path class="cls-1" d="M1.51,6.73,2.94,7.92a4.15,4.15,0,0,0-1.15,2.64c0,1.08.47,1.65,1.19,1.65s1-.63,1.4-1.55L5,9.27a3,3,0,0,1,2.79-2.1c1.7,0,3,1.48,3,3.58A4.61,4.61,0,0,1,9.43,14L8.12,13A3.29,3.29,0,0,0,9,10.75c0-.91-.41-1.48-1.09-1.48s-1,.73-1.36,1.61L6,12.24a2.85,2.85,0,0,1-2.81,2.09C1.44,14.33,0,12.91,0,10.52A5.57,5.57,0,0,1,1.51,6.73Z"/><path class="cls-1" d="M5.42,18.44c3.38,0,5.34,1.89,5.34,4.63s-2,4.64-5.34,4.64S0,25.82,0,23.07,2.06,18.44,5.42,18.44Zm0,7.16c2.23,0,3.56-1,3.56-2.53s-1.33-2.52-3.56-2.52-3.63,1-3.63,2.52S3.21,25.6,5.42,25.6Z"/><rect class="cls-2" x="0.55" y="41.9" width="1" height="263"/></g></g></svg>