<svg xmlns="http://www.w3.org/2000/svg" viewBox="0 0 10.76 645.48"><defs><style>.cls-1{fill:#333;}.cls-2{fill:#e6e6e6;}</style></defs><g id="レイヤー_2" data-name="レイヤー 2"><g id="JP"><path class="cls-1" d="M10.58,0V3.4c0,2.3-.82,4.07-3.27,4.07s-3.43-1.78-3.43-4V2.07H.2V0ZM5.52,3.32c0,1.43.6,2.12,1.79,2.12s1.61-.76,1.61-2.19V2.07H5.52Z"/><path class="cls-1" d="M10.58,12.15v3.62c0,2.17-.77,3.89-3.16,3.89a3,3,0,0,1-3-2L.2,20.11V17.8l3.92-2.13V14.22H.2V12.15ZM5.76,15.57c0,1.33.56,2.07,1.66,2.07s1.5-.74,1.5-2.07V14.22H5.76Z"/><path class="cls-1" d="M5.42,24c3.38,0,5.34,1.9,5.34,4.64s-2,4.64-5.34,4.64S0,31.38,0,28.63,2.06,24,5.42,24Zm0,7.16c2.23,0,3.56-1,3.56-2.52s-1.33-2.52-3.56-2.52-3.63,1-3.63,2.52S3.21,31.15,5.42,31.15Z"/><path class="cls-1" d="M10.58,38.11V41c0,3.17-1.66,5.13-5.16,5.13s-5.22-2-5.22-5v-3ZM1.86,40.82c0,1.94,1,3.14,3.56,3.14s3.49-1.2,3.49-3.14v-.64h-7Z"/><path class="cls-1" d="M4.86,50.86h5.72v2.07H4.68c-2.16,0-2.89.76-2.89,2s.73,2,2.89,2h5.9v2H4.86C1.41,58.9,0,57.43,0,54.9S1.41,50.86,4.86,50.86Z"/><path class="cls-1" d="M5.34,63.69c3.41,0,5.42,2.19,5.42,4.81a4.22,4.22,0,0,1-1.33,3L8.11,70.46A2.73,2.73,0,0,0,9,68.55C9,67,7.63,65.8,5.41,65.8s-3.62,1.06-3.62,2.7a2.85,2.85,0,0,0,1,2.15L1.53,71.74A4.19,4.19,0,0,1,0,68.43C0,65.81,1.88,63.69,5.34,63.69Z"/><path class="cls-1" d="M8.84,78.27V75.36h1.74v7.93H8.84V80.35H.2V78.27Z"/><rect class="cls-2" x="2.04" y="116.48" width="1" height="529"/></g></g></svg>