<svg xmlns="http://www.w3.org/2000/svg" viewBox="0 0 13.38 304.42"><defs><style>.cls-1{fill:#333;}.cls-2{fill:#e6e6e6;}</style></defs><g id="レイヤー_2" data-name="レイヤー 2"><g id="JP"><path class="cls-1" d="M2.7,3.68C3.12,1.47,5.08,0,8,0c3.38,0,5.34,1.89,5.34,4.64S11.4,9.27,8,9.27c-2.83,0-4.73-1.34-5.27-3.4a2.66,2.66,0,0,0-1.1,2.35,4,4,0,0,0,.16,1.14L.31,9.74A4.47,4.47,0,0,1,0,8,4.53,4.53,0,0,1,2.7,3.68ZM8,7.16c2.23,0,3.56-1,3.56-2.52S10.27,2.12,8,2.12s-3.73,1-3.73,2.52S5.71,7.16,8,7.16Z"/><path class="cls-1" d="M7.48,14h5.71v2.08H7.3c-2.16,0-2.89.75-2.89,2s.73,2,2.89,2h5.89v2H7.48c-3.45,0-4.86-1.47-4.86-4S4,14,7.48,14Z"/><path class="cls-1" d="M13.19,29.36V31.8L2.82,35.13V33l2.66-.73V28.87l-2.66-.73V26Zm-6.1,0v2.46l1.13-.31c1.08-.32,2.27-.6,3.39-.89v-.07c-1.13-.27-2.31-.58-3.39-.89Z"/><path class="cls-1" d="M13.19,39.14v2.08H4.55v4.21H2.82V39.14Z"/><path class="cls-1" d="M13.19,50v2.07H2.82V50Z"/><path class="cls-1" d="M11.46,59.51V56.6h1.73v7.93H11.46V61.59H2.82V59.51Z"/><path class="cls-1" d="M6.61,70.76l6.58-3.11v2.2l-2.53,1-2.3.9v0c.8.33,1.53.64,2.3.93l2.53,1V76L6.61,72.83H2.82V70.76Z"/><path class="cls-1" d="M13.19,85.92v3.4c0,2.3-.81,4.06-3.26,4.06s-3.43-1.78-3.43-4V88H2.82V85.92Zm-5,3.32c0,1.43.6,2.11,1.79,2.11s1.61-.75,1.61-2.18V88H8.14Z"/><path class="cls-1" d="M8,97.54c3.38,0,5.34,1.89,5.34,4.63s-2,4.64-5.34,4.64-5.42-1.89-5.42-4.64S4.68,97.54,8,97.54Zm0,7.15c2.23,0,3.56-1,3.56-2.52S10.27,99.65,8,99.65s-3.63,1-3.63,2.52S5.83,104.69,8,104.69Z"/><path class="cls-1" d="M13.19,111.63v2.08H4.55v4.21H2.82v-6.29Z"/><path class="cls-1" d="M13.19,122.53v2.07H2.82v-2.07Z"/><path class="cls-1" d="M8,129.43c3.41,0,5.42,2.2,5.42,4.82a4.26,4.26,0,0,1-1.33,3l-1.32-1.08a2.76,2.76,0,0,0,.87-1.92c0-1.57-1.35-2.75-3.57-2.75s-3.62,1.07-3.62,2.71a2.87,2.87,0,0,0,1,2.14l-1.28,1.09a4.17,4.17,0,0,1-1.53-3.3C2.62,131.56,4.5,129.43,8,129.43Z"/><path class="cls-1" d="M6.61,143.7l6.58-3.11v2.19l-2.53,1-2.3.9v.05c.8.33,1.53.63,2.3.93l2.53,1v2.16l-6.58-3.12H2.82V143.7Z"/><rect class="cls-2" x="3.17" y="170.42" width="1" height="134"/></g></g></svg>